<svg width="1024" height="256" version="1.1" viewBox="0 0 270.93 67.733" xmlns="http://www.w3.org/2000/svg"><g display="none"><rect x=".31721" y=".31721" width="270.93" height="67.099" fill="#282c34" style="paint-order:markers stroke fill"/></g><g transform="matrix(.46667 0 0 .46667 3.155 2.2578)"><path d="m131.23 67.733a63.5 63.5 0 0 1-63.5 63.5 63.5 63.5 0 0 1-63.5-63.499 63.5 63.5 0 0 1 63.499-63.501 63.5 63.5 0 0 1 63.501 63.499l-63.5 0.0011z" fill="#e6e6e6" opacity=".999" stroke-width="1.4198"/><path transform="matrix(.71703 0 0 .71703 16.806 31.44)" d="m130.8 21.372v19.74h-16.45l7.896 7.8412-70.297 70.297-46.608-46.608 70.297-70.297 7.8412 7.896v-16.45h19.74v27.581zm-39.425-19.685v23.14c1.3526-1.2429 2.6686-2.5589 3.948-3.948v-19.192zm31.529 31.529v-3.948h-19.192c-1.3891 1.2794-2.7051 2.5955-3.948 3.948z" fill="#20203c" style="paint-order:stroke fill markers"/></g><g transform="translate(0 .78199)"><g transform="translate(-1.2689 -5.8208)" stroke-width="1.1578" aria-label="TAGether"><g fill="#a494fe"><path d="m69.824 17.611h25.191l-1.1231 3.0706h-10.205v29.893h-3.6124v-29.893h-10.25z"/><path d="m90.569 50.574 12.057-32.964h4.064l12.011 32.964h-3.8382l-3.3415-9.6181h-13.908l-3.2964 9.6181zm8.0377-12.508h11.921l-5.9154-17.204h-0.0903z"/><path d="m135.38 20.094c-4.2446 0-7.5861 1.2644-10.025 3.7931-2.4083 2.5287-3.6124 5.9304-3.6124 10.205 0 4.3048 1.2493 7.7216 3.7479 10.25 2.5287 2.4986 5.9304 3.7479 10.205 3.7479 2.6792 0 5.1327-0.49671 7.3604-1.4901v-12.327h-11.424l-1.053-2.89h15.954v17.159c-3.4017 1.6557-7.1195 2.4836-11.153 2.4836-5.238 0-9.4375-1.5353-12.598-4.6059-3.1308-3.0706-4.6962-7.1797-4.6962-12.327s1.5353-9.2569 4.6059-12.327 7.2098-4.6059 12.418-4.6059c2.7233 0 5.2327 0.45822 7.5283 1.3747-0.37137-0.92801 0.72576 1.9913 1.4577 3.9989-2.7093-1.6256-5.6144-2.4384-8.715-2.4384z"/></g><g fill="#abb2bf"><path d="m156.17 40.098q0.0903 3.8382 2.3481 6.0509 2.2578 2.2126 5.8702 2.2126 3.477 0 6.9088-1.8062l0.90311 2.5739q-3.7931 1.8965-8.128 1.8965-5.0574 0-8.1732-3.2964t-3.1157-8.8957q0-5.6896 2.89-8.9408 2.9351-3.2512 7.9474-3.2512 4.8768 0 7.541 3.1157 2.7093 3.0706 2.7093 8.8505 0 0.58702-0.0903 1.4901zm0-2.619h14.45q-0.0452-3.9285-1.8965-6.0508-1.8514-2.1223-5.1026-2.1223-3.3867 0-5.3735 2.1675-1.9417 2.1223-2.0772 6.0057z"/><path d="m186.29 19.417v8.5796h8.8956v2.7093h-8.8956v12.327q0 3.1609 0.85796 4.2446 0.85795 1.0386 3.206 1.0386 2.0772 0 3.9737-0.76764l0.54186 2.6642q-2.3029 0.8128-4.9671 0.8128-3.8382 0-5.4187-1.6256-1.5804-1.6708-1.5804-5.7348v-12.96h-5.1929v-2.7093h5.1929v-8.5796z"/><path d="m202.19 16.708h3.2964v14.405h0.0903q2.9803-4.4704 7.9022-4.4704 3.9737 0 5.8702 2.4836 1.9417 2.4384 1.9417 7.7668v13.682h-3.2512v-13.411q0-4.3801-1.2644-6.0508-1.2644-1.7159-4.3349-1.7159-2.7093 0-4.8316 2.6642-2.1223 2.619-2.1223 5.9605v12.553h-3.2964z"/><path d="m229.64 40.098q0.0903 3.8382 2.3481 6.0509 2.2578 2.2126 5.8702 2.2126 3.477 0 6.9088-1.8062l0.90311 2.5739q-3.7931 1.8965-8.128 1.8965-5.0574 0-8.1732-3.2964t-3.1157-8.8957q0-5.6896 2.89-8.9408 2.9351-3.2512 7.9474-3.2512 4.8768 0 7.541 3.1157 2.7093 3.0706 2.7093 8.8505 0 0.58702-0.0903 1.4901zm0-2.619h14.45q-0.0452-3.9285-1.8965-6.0508-1.8514-2.1223-5.1026-2.1223-3.3867 0-5.3735 2.1675-1.9417 2.1223-2.0772 6.0057z"/><path d="m252.76 27.093h3.206l0.0903 5.0123h0.0903q3.9737-5.4638 11.199-5.4638v2.8448q-5.0123 0-8.128 2.7545-3.0706 2.7545-3.0706 7.1346v11.199h-3.3867z"/></g></g><g fill="#abb2bf" stroke-width=".26458" aria-label="Share your self-made exam with classmates"><path d="m84.245 53.398-0.37207 0.50436q-0.04134-0.01654-0.04961-0.06615 0-0.05788-0.01654-0.08268-0.1571-0.23978-0.43822-0.38034-0.27285-0.14883-0.678-0.14883-0.38861 0-0.65319 0.23151-0.25632 0.23151-0.25632 0.5457 0 0.19017 0.06615 0.32246t0.19844 0.26458q0.13229 0.12402 0.38034 0.25632 0.25632 0.12402 0.66146 0.28939 0.38861 0.1571 0.64492 0.31419 0.25632 0.1571 0.40514 0.339 0.1571 0.17363 0.21497 0.37207 0.06615 0.19844 0.06615 0.44648 0 0.27285-0.10749 0.5457-0.09922 0.27285-0.31419 0.48782-0.21497 0.21497-0.5457 0.35553-0.33073 0.13229-0.79375 0.13229-1.0253 0-1.6536-0.678l0.34727-0.60358q0.04134 0.02481 0.04134 0.08268 0 0.05788 0.02481 0.09095 0.19844 0.24805 0.52917 0.41341 0.33073 0.16536 0.79375 0.16536 0.23978 0 0.43822-0.08268 0.19844-0.08268 0.339-0.20671 0.14883-0.13229 0.23151-0.31419 0.08268-0.19017 0.08268-0.38861 0-0.1571-0.05788-0.28939-0.04961-0.13229-0.1819-0.24805-0.12402-0.11576-0.35553-0.23151-0.23151-0.11576-0.61185-0.26458-0.41341-0.1571-0.69453-0.32246-0.27285-0.16536-0.44648-0.33073-0.16536-0.17363-0.23978-0.3638-0.06615-0.19844-0.06615-0.42995 0-0.28939 0.11576-0.53744 0.12402-0.25632 0.339-0.44648 0.22324-0.19017 0.51263-0.29766 0.29766-0.10749 0.63665-0.10749 0.42995 0 0.81029 0.17363 0.38034 0.17363 0.65319 0.48783z"/><path d="m85.394 58.044v-5.6307h0.7028q0 0.0083 0 0.0083 0.0083 0 0.0083 0.0083 0 0.02481-0.04134 0.07441-0.04134 0.04134-0.05788 0.11576v2.2407q0.23151-0.35553 0.57051-0.56224 0.34726-0.21497 0.7028-0.21497 0.26458 0 0.47956 0.09095 0.21497 0.08268 0.37207 0.28112 0.16536 0.19017 0.24805 0.49609 0.08268 0.30592 0.08268 0.74414v2.3482h-0.59534v-2.3316q0-0.61185-0.20671-0.85163-0.20671-0.24805-0.50436-0.24805-0.19844 0-0.39688 0.09095-0.19017 0.08268-0.37207 0.23978-0.1819 0.14883-0.28112 0.37207-0.09922 0.21497-0.09922 0.50436v2.2242z"/><path d="m89.801 54.629q0.51263-0.5457 1.3808-0.53744 0.71107 0 1.1162 0.3638 0.41341 0.35553 0.41341 1.1906v2.3978h-0.57051v-0.42168q-0.62012 0.51263-1.3891 0.51263-0.30592 0-0.5457-0.09095-0.23978-0.09095-0.41341-0.23978-0.16536-0.1571-0.25632-0.34727-0.09095-0.19844-0.09095-0.39688 0-0.58704 0.50436-0.91777 0.50436-0.339 1.4552-0.37207h0.7276v-0.14883q0-0.57878-0.24805-0.80202-0.23978-0.23151-0.74414-0.23151-0.62839 0-1.0418 0.42995zm2.3564 1.604h-0.14883q-0.11576 0-0.22324 0-0.09922-0.0083-0.20671-0.0083-0.46302 0-0.76068 0.06614-0.29766 0.05788-0.47129 0.17363-0.16536 0.10749-0.23151 0.24805-0.05788 0.14056-0.05788 0.29766 0 0.27285 0.23151 0.47129 0.23978 0.19017 0.58704 0.19017 0.25632 0 0.45475-0.08268 0.20671-0.08268 0.35553-0.19017 0.1571-0.11576 0.24805-0.23978 0.09095-0.12402 0.14056-0.21497 0.08268-0.16536 0.08268-0.45475z"/><path d="m93.82 54.175h1.1576l-0.0248 0.74414q0.19017-0.38034 0.52917-0.60358 0.339-0.22324 0.75241-0.22324 0.58704 0 1.0005 0.41341l-0.28939 0.58704-0.08268-0.10749q-0.24805-0.37207-0.66973-0.37207-0.24805 0-0.47129 0.14056-0.22324 0.14056-0.39688 0.35553t-0.27285 0.46302q-0.09922 0.23978-0.09922 0.5209v1.4966h0.81029v0.46302h-1.9596v-0.46302h0.5457v-2.927h-0.52917z"/><path d="m99.69 54.084q0.30592 0 0.59532 0.10749 0.28938 0.10749 0.50436 0.339 0.21497 0.22324 0.34726 0.57051t0.13229 0.81856q0 0.06615-8e-3 0.14056 0 0.07441-8e-3 0.14056h-2.7533q0.01654 0.40514 0.14056 0.678 0.12402 0.27285 0.30592 0.44648 0.19017 0.16536 0.41341 0.23978 0.23151 0.07441 0.46302 0.07441 0.60358 0 0.99219-0.42995l0.339 0.33073q-0.48783 0.59531-1.3477 0.58704-0.42168 0-0.77721-0.13229-0.35553-0.13229-0.60358-0.38034-0.23978-0.25632-0.38034-0.62839-0.13229-0.38034-0.13229-0.8599 0-0.48783 0.14056-0.86816 0.14056-0.38861 0.38034-0.64492t0.56224-0.38861q0.32246-0.14056 0.69453-0.14056zm-1.1658 1.6371h2.1249q0-0.03307 0-0.05788 8e-3 -0.03307 8e-3 -0.07441 0-0.21497-0.0827-0.40514-0.0827-0.19017-0.21497-0.32246-0.13229-0.14056-0.31419-0.22324-0.1819-0.09095-0.39688-0.09095-0.39688 0-0.71934 0.28112t-0.40514 0.89297z"/><path d="m106.46 54.448-0.10748-0.27285h0.75241q0 0.06615-0.0165 0.11576-0.0165 0.04134-0.0165 0.09095 0 0.03307 0.0165 0.04961l1.1328 2.8443 0.73587-2.0753q0.10749-0.29766 0.17363-0.55397 0.0744-0.25632 0.11576-0.47129h0.63665q-0.0744 0.22324-0.16536 0.50436-0.091 0.27285-0.21498 0.61185l-1.0501 2.7699-0.1571 0.42168q-0.2067 0.57051-0.52917 0.80202-0.31419 0.23151-0.7276 0.23151-0.55397 0-0.8847-0.33073l0.31419-0.53744q0.0248 0.0248 0.0413 0.07441 0.0248 0.05788 0.0331 0.07441 0 0 0.0331 0.04134 0.0331 0.03307 0.0827 0.07441 0.0579 0.04134 0.14056 0.07441 0.0909 0.03307 0.19017 0.03307 0.24805 0 0.43822-0.1571 0.19017-0.14883 0.37207-0.5457l0.12402-0.28939z"/><path d="m112.35 54.092q0.35553 0 0.66972 0.14056 0.32246 0.14056 0.55397 0.40514 0.23978 0.25632 0.38034 0.63665 0.14056 0.37207 0.14056 0.84336 0 0.47129-0.14056 0.84336-0.13229 0.37207-0.37207 0.63665-0.23151 0.26458-0.55397 0.40514-0.32246 0.14056-0.68626 0.14056-0.37207 0-0.7028-0.14883-0.32246-0.1571-0.57051-0.42168-0.23978-0.26458-0.38861-0.63665-0.14056-0.37207-0.14056-0.80202t0.14883-0.81029q0.14883-0.38861 0.39688-0.65319 0.24804-0.26458 0.57877-0.42168t0.68627-0.1571zm1.1327 2.0423q0-0.3638-0.0992-0.64492-0.091-0.28939-0.25631-0.47956-0.1571-0.19844-0.3638-0.29766-0.20671-0.10749-0.43822-0.10749t-0.43822 0.10749q-0.2067 0.09922-0.3638 0.29766-0.15709 0.19017-0.24804 0.46302-0.091 0.27285-0.091 0.62012 0 0.339 0.091 0.62012 0.0909 0.28112 0.24804 0.48783 0.1571 0.19844 0.3638 0.31419 0.21498 0.10749 0.45476 0.10749t0.44648-0.09922q0.20671-0.09922 0.3638-0.28939 0.1571-0.19017 0.23978-0.46302 0.091-0.28112 0.091-0.63665z"/><path d="m114.97 54.175h0.60358v2.158q0 0.37207 0.0661 0.62838 0.0744 0.24805 0.19017 0.39688 0.12403 0.14883 0.28112 0.22324 0.1571 0.06615 0.34727 0.06615 0.2067-0.01654 0.3886-0.09922 0.18191-0.09095 0.33073-0.24805 0.14883-0.1571 0.23151-0.39688 0.091-0.24805 0.091-0.59531v-2.1332h0.61184v3.5223q0 0.19844 0.0496 0.34727h-0.64492q-8e-3 -0.05788-0.0165-0.13229-8e-3 -0.07441 0-0.16536l8e-3 -0.29766q-0.19017 0.32246-0.51263 0.50436-0.31419 0.1819-0.69453 0.1819-0.29766 0-0.53743-0.09922-0.23151-0.10749-0.42168-0.33073t-0.28939-0.56224q-0.0992-0.339-0.0992-0.81029z"/><path d="m119.22 54.175h1.1576l-0.0248 0.74414q0.19017-0.38034 0.52917-0.60358t0.75241-0.22324q0.58704 0 1.0005 0.41341l-0.28939 0.58704-0.0827-0.10749q-0.24805-0.37207-0.66973-0.37207-0.24805 0-0.47129 0.14056t-0.39688 0.35553q-0.17363 0.21497-0.27285 0.46302-0.0992 0.23978-0.0992 0.5209v1.4966h0.81029v0.46302h-1.9596v-0.46302h0.5457v-2.927h-0.52916z"/><path d="m130.79 54.687-0.35553 0.53744q-0.0413-0.0083-0.0413-0.06614 0-0.05788-0.0165-0.08268-0.14883-0.19844-0.42995-0.3638t-0.63665-0.16536q-0.1571 0-0.30592 0.04134-0.14883 0.03307-0.26459 0.10749-0.11575 0.06614-0.1819 0.17363-0.0661 0.09922-0.0661 0.23978 0 0.09922 0.0496 0.1819 0.0496 0.07441 0.1571 0.1571 0.11576 0.07441 0.31419 0.14883 0.19844 0.07441 0.5209 0.17363 0.72761 0.19844 1.0253 0.46302 0.30593 0.26458 0.30593 0.65319 0 0.25632-0.11576 0.48783-0.10748 0.22324-0.32246 0.39688-0.2067 0.16536-0.50436 0.26458-0.29766 0.09095-0.66973 0.09095-0.97565 0-1.6371-0.60358l0.34727-0.61185q0.0248 0.02481 0.0331 0.08268 8e-3 0.04961 0.0579 0.13229 0.0579 0.07441 0.19017 0.17363 0.14056 0.09095 0.41341 0.20671 0.12402 0.05788 0.28939 0.09095 0.16536 0.0248 0.32246 0.0248 0.16536 0 0.339-0.04134 0.1819-0.04134 0.31419-0.12402 0.14056-0.08268 0.22324-0.19844 0.0909-0.11576 0.0909-0.25632 0-0.22324-0.2067-0.37207-0.19844-0.14883-0.74414-0.31419-0.37207-0.10749-0.48783-0.14883-0.30592-0.11576-0.44648-0.20671-0.1323-0.09095-0.24805-0.21497-0.10749-0.12402-0.17363-0.28112-0.0662-0.1571-0.0662-0.339 0-0.20671 0.10749-0.38861 0.11575-0.19017 0.31419-0.33073 0.19844-0.14883 0.47129-0.23151 0.27285-0.09095 0.59531-0.09095 0.8847-0.0083 1.4387 0.60358z"/><path d="m133.56 54.084q0.30593 0 0.59531 0.10749 0.28939 0.10749 0.50437 0.339 0.21497 0.22324 0.34726 0.57051t0.13229 0.81856q0 0.06615-8e-3 0.14056 0 0.07441-8e-3 0.14056h-2.7533q0.0165 0.40514 0.14056 0.678 0.12402 0.27285 0.30592 0.44648 0.19017 0.16536 0.41341 0.23978 0.23151 0.07441 0.46302 0.07441 0.60358 0 0.99219-0.42995l0.339 0.33073q-0.48783 0.59531-1.3477 0.58704-0.42168 0-0.77722-0.13229-0.35553-0.13229-0.60358-0.38034-0.23978-0.25632-0.38034-0.62839-0.13229-0.38034-0.13229-0.8599 0-0.48783 0.14056-0.86816 0.14056-0.38861 0.38034-0.64492t0.56224-0.38861q0.32246-0.14056 0.69453-0.14056zm-1.1658 1.6371h2.1249q0-0.03307 0-0.05788 8e-3 -0.03307 8e-3 -0.07441 0-0.21497-0.0827-0.40514-0.0827-0.19017-0.21497-0.32246-0.13229-0.14056-0.3142-0.22324-0.1819-0.09095-0.39687-0.09095-0.39688 0-0.71934 0.28112t-0.40514 0.89297z"/><path d="m136.35 52.405h1.3312v4.3408q0 0.44648 0.19844 0.64492 0.2067 0.19017 0.57051 0.19017 0.29765 0 0.7276-0.19017l0.1819 0.51263q-0.27285 0.09922-0.49609 0.16536-0.22324 0.07441-0.56224 0.07441-0.64492 0-0.93431-0.3638t-0.28939-1.0831v-3.7372h-0.7276z"/><path d="m142.73 52.364q0.73587 0 1.1906 0.52917l-0.28112 0.56224q-0.0661 0-0.0661-0.06615t-0.0165-0.09922q-0.13229-0.19844-0.3638-0.32246-0.22324-0.12402-0.48783-0.12402-0.22324 0-0.38033 0.06615-0.1571 0.06615-0.28939 0.20671-0.12403 0.14056-0.19017 0.38861-0.0579 0.24805-0.0579 0.60358v0.29766h1.265v0.47956h-1.265v3.1585h-0.58704v-3.1585h-0.83509v-0.47956h0.83509v-0.38034q0-0.44648 0.11575-0.76068 0.11576-0.32246 0.33073-0.5209 0.21498-0.19844 0.48783-0.28939t0.59531-0.09095z"/><path d="m144.69 55.134h2.9766v0.50436h-2.9766z"/><path d="m148.62 58.044v-3.8695h0.55397v0.38034q0.1323-0.21497 0.34727-0.339 0.21497-0.13229 0.45475-0.13229 0.24805 0 0.43822 0.16536 0.19017 0.1571 0.23978 0.39688 0.10748-0.25632 0.33899-0.40514 0.23978-0.1571 0.5209-0.1571 0.39688 0 0.57878 0.28112 0.19017 0.28112 0.17363 0.71107v2.9683h-0.55397v-2.7451q0-0.26458-0.0248-0.41341t-0.0909-0.23151q-0.0579-0.08268-0.11576-0.09922-0.0579-0.02481-0.14883-0.02481-0.10748 0-0.22324 0.09095-0.10749 0.09095-0.19844 0.22324-0.0827 0.13229-0.13229 0.30592-0.0496 0.17363-0.0496 0.339v2.5549h-0.57051v-2.6954q0-0.47956-0.0909-0.63665-0.0827-0.16536-0.30592-0.16536-0.20671 0-0.39688 0.23978t-0.19017 0.678v2.5797z"/><path d="m153.3 54.629q0.51263-0.5457 1.3808-0.53744 0.71107 0 1.1162 0.3638 0.41341 0.35553 0.41341 1.1906v2.3978h-0.57051v-0.42168q-0.62011 0.51263-1.3891 0.51263-0.30592 0-0.5457-0.09095t-0.41341-0.23978q-0.16537-0.1571-0.25632-0.34727-0.091-0.19844-0.091-0.39688 0-0.58704 0.50436-0.91777 0.50436-0.339 1.4552-0.37207h0.72761v-0.14883q0-0.57878-0.24805-0.80202-0.23978-0.23151-0.74414-0.23151-0.62839 0-1.0418 0.42995zm2.3564 1.604h-0.14883q-0.11575 0-0.22324 0-0.0992-0.0083-0.20671-0.0083-0.46302 0-0.76067 0.06614-0.29766 0.05788-0.47129 0.17363-0.16537 0.10749-0.23151 0.24805-0.0579 0.14056-0.0579 0.29766 0 0.27285 0.23151 0.47129 0.23978 0.19017 0.58704 0.19017 0.25632 0 0.45476-0.08268 0.2067-0.08268 0.35553-0.19017 0.1571-0.11576 0.24805-0.23978 0.0909-0.12402 0.14056-0.21497 0.0827-0.16536 0.0827-0.45475z"/><path d="m159.91 54.745v-2.3316h0.65319q0 0.04961-0.0413 0.11576-0.0413 0.06614-0.0413 0.12402l8e-3 5.0354q0 0.2067 0.0413 0.35553h-0.61185q-0.0331-0.09922-0.0331-0.28939v-0.33073q-0.19017 0.32246-0.51263 0.51263-0.32246 0.19017-0.64492 0.19017t-0.61185-0.12402q-0.28112-0.12402-0.49609-0.38034-0.21498-0.25632-0.34727-0.63665-0.12402-0.38861-0.12402-0.91777 0-0.53744 0.14056-0.9095 0.14882-0.37207 0.38034-0.61185 0.23151-0.24805 0.52089-0.35553 0.28939-0.11576 0.58705-0.11576 0.40514 0 0.69453 0.1819 0.29766 0.1819 0.43822 0.48783zm-1.8025 0.11576q-0.3638 0.33073-0.3638 1.1162 0 0.7276 0.27285 1.1741 0.28112 0.44648 0.82682 0.44648 0.12403 0 0.26459-0.04961 0.14883-0.04961 0.27285-0.14056 0.13229-0.09095 0.23151-0.21497 0.0992-0.13229 0.14883-0.28939 0.0909-0.30592 0.0992-0.81856 0-0.32246-0.0248-0.53744-0.0248-0.21497-0.0827-0.3638-0.0579-0.1571-0.14056-0.24805-0.0827-0.09922-0.21497-0.17363-0.14883-0.09095-0.28112-0.14056-0.1323-0.04961-0.24805-0.04961-0.24805 0-0.42168 0.07441-0.17363 0.06615-0.339 0.21497z"/><path d="m163.19 54.084q0.30592 0 0.59531 0.10749t0.50436 0.339q0.21498 0.22324 0.34727 0.57051t0.13229 0.81856q0 0.06615-8e-3 0.14056 0 0.07441-8e-3 0.14056h-2.7533q0.0165 0.40514 0.14056 0.678 0.12403 0.27285 0.30593 0.44648 0.19017 0.16536 0.41341 0.23978 0.23151 0.07441 0.46302 0.07441 0.60358 0 0.99219-0.42995l0.33899 0.33073q-0.48782 0.59531-1.3477 0.58704-0.42168 0-0.77721-0.13229-0.35554-0.13229-0.60358-0.38034-0.23978-0.25632-0.38034-0.62839-0.13229-0.38034-0.13229-0.8599 0-0.48783 0.14056-0.86816 0.14056-0.38861 0.38034-0.64492 0.23977-0.25632 0.56224-0.38861 0.32246-0.14056 0.69453-0.14056zm-1.1658 1.6371h2.1249q0-0.03307 0-0.05788 8e-3 -0.03307 8e-3 -0.07441 0-0.21497-0.0827-0.40514-0.0827-0.19017-0.21498-0.32246-0.13229-0.14056-0.31419-0.22324-0.1819-0.09095-0.39687-0.09095-0.39688 0-0.71934 0.28112t-0.40514 0.89297z"/><path d="m171.66 54.084q0.30593 0 0.59532 0.10749t0.50436 0.339q0.21497 0.22324 0.34726 0.57051 0.1323 0.34727 0.1323 0.81856 0 0.06615-8e-3 0.14056 0 0.07441-8e-3 0.14056h-2.7533q0.0165 0.40514 0.14056 0.678 0.12402 0.27285 0.30592 0.44648 0.19017 0.16536 0.41341 0.23978 0.23152 0.07441 0.46303 0.07441 0.60358 0 0.99218-0.42995l0.339 0.33073q-0.48782 0.59531-1.3477 0.58704-0.42168 0-0.77721-0.13229-0.35554-0.13229-0.60359-0.38034-0.23977-0.25632-0.38033-0.62839-0.1323-0.38034-0.1323-0.8599 0-0.48783 0.14056-0.86816 0.14056-0.38861 0.38034-0.64492t0.56224-0.38861q0.32246-0.14056 0.69453-0.14056zm-1.1658 1.6371h2.1249q0-0.03307 0-0.05788 8e-3 -0.03307 8e-3 -0.07441 0-0.21497-0.0827-0.40514-0.0827-0.19017-0.21498-0.32246-0.13229-0.14056-0.31419-0.22324-0.1819-0.09095-0.39688-0.09095-0.39687 0-0.71933 0.28112t-0.40515 0.89297z"/><path d="m176.77 54.175h0.62012l-1.2485 1.8769 1.4221 1.9926h-0.69453l-1.0666-1.5048-1.0087 1.5048h-0.69453l1.3642-1.9678-1.3394-1.9017h0.66973l1.0087 1.4304z"/><path d="m178.7 54.629q0.51263-0.5457 1.3808-0.53744 0.71107 0 1.1162 0.3638 0.41341 0.35553 0.41341 1.1906v2.3978h-0.57051v-0.42168q-0.62011 0.51263-1.3891 0.51263-0.30592 0-0.5457-0.09095t-0.41342-0.23978q-0.16536-0.1571-0.25631-0.34727-0.0909-0.19844-0.0909-0.39688 0-0.58704 0.50436-0.91777 0.50436-0.339 1.4552-0.37207h0.7276v-0.14883q0-0.57878-0.24804-0.80202-0.23978-0.23151-0.74414-0.23151-0.62839 0-1.0418 0.42995zm2.3564 1.604h-0.14883q-0.11575 0-0.22324 0-0.0992-0.0083-0.20671-0.0083-0.46302 0-0.76067 0.06614-0.29766 0.05788-0.47129 0.17363-0.16537 0.10749-0.23151 0.24805-0.0579 0.14056-0.0579 0.29766 0 0.27285 0.23151 0.47129 0.23978 0.19017 0.58704 0.19017 0.25632 0 0.45476-0.08268 0.2067-0.08268 0.35553-0.19017 0.1571-0.11576 0.24805-0.23978 0.0909-0.12402 0.14056-0.21497 0.0827-0.16536 0.0827-0.45475z"/><path d="m182.49 58.044v-3.8695h0.55397v0.38034q0.13229-0.21497 0.34727-0.339 0.21497-0.13229 0.45475-0.13229 0.24805 0 0.43821 0.16536 0.19017 0.1571 0.23978 0.39688 0.10749-0.25632 0.339-0.40514 0.23978-0.1571 0.5209-0.1571 0.39687 0 0.57878 0.28112 0.19017 0.28112 0.17363 0.71107v2.9683h-0.55397v-2.7451q0-0.26458-0.0248-0.41341t-0.0909-0.23151q-0.0579-0.08268-0.11575-0.09922-0.0579-0.02481-0.14883-0.02481-0.10749 0-0.22324 0.09095-0.10749 0.09095-0.19844 0.22324-0.0827 0.13229-0.13229 0.30592-0.0496 0.17363-0.0496 0.339v2.5549h-0.57051v-2.6954q0-0.47956-0.091-0.63665-0.0827-0.16536-0.30593-0.16536-0.2067 0-0.39687 0.23978t-0.19017 0.678v2.5797z"/><path d="m190.76 54.175h0.62012v0.03307q0 0.04961-0.0165 0.11576-0.0165 0.06615-0.0165 0.12402 0 0.03307 8e-3 0.04961l0.5705 2.7864 0.66146-2.7451h0.37207l0.81856 2.7368q0.10749-0.74414 0.1819-1.2237 0.0744-0.48783 0.10749-0.80202 0.0413-0.32246 0.0496-0.52917 0.0165-0.20671 0.0165-0.42168v-0.12402h0.57051q-0.12402 0.98392-0.28939 1.9513-0.16536 0.95912-0.35553 1.9265h-0.57878l-0.71107-2.5053-0.67799 2.5053h-0.5457z"/><path d="m195.77 54.175h1.5462v3.3817h0.9095v0.48783h-2.5135v-0.48783h0.99219v-2.8939h-0.93431zm0.94258-1.5544q0.12402-0.12402 0.30592-0.13229 0.1819 0 0.30592 0.13229 0.1323 0.13229 0.1323 0.31419t-0.1323 0.30592q-0.12402 0.12402-0.30592 0.12402t-0.30592-0.12402q-0.12403-0.13229-0.12403-0.30592 0-0.19017 0.12403-0.31419z"/><path d="m200.69 53.141 0.66146-0.10749q0 0.07441-0.0248 0.13229-0.0165 0.05788-0.0248 0.09095l-0.0992 0.91777h1.2733v0.49609h-1.2733q-0.0744 0.75241-0.0744 1.4139 0 0.40514 0.0165 0.68626t0.0827 0.44648q0.0744 0.1571 0.20671 0.24805 0.14056 0.09095 0.37207 0.09095 0.38861 0 0.8599-0.34727l0.19017 0.47956q-0.58705 0.42995-1.2072 0.42995-0.61185 0-0.89297-0.3638-0.27285-0.37207-0.24804-1.1989 0-0.30592 0.0165-0.77721 0.0165-0.47956 0.0661-1.1079h-0.90124v-0.49609h0.92604z"/><path d="m203.93 58.044v-5.6307h0.7028q0 0.0083 0 0.0083 8e-3 0 8e-3 0.0083 0 0.02481-0.0413 0.07441-0.0413 0.04134-0.0579 0.11576v2.2407q0.23151-0.35553 0.57051-0.56224 0.34726-0.21497 0.7028-0.21497 0.26458 0 0.47955 0.09095 0.21498 0.08268 0.37207 0.28112 0.16537 0.19017 0.24805 0.49609 0.0827 0.30592 0.0827 0.74414v2.3482h-0.59531v-2.3316q0-0.61185-0.2067-0.85163-0.20671-0.24805-0.50437-0.24805-0.19843 0-0.39687 0.09095-0.19017 0.08268-0.37207 0.23978-0.1819 0.14883-0.28112 0.37207-0.0992 0.21497-0.0992 0.50436v2.2242z"/><path d="m215.67 54.82-0.42995 0.49609q-0.0413-0.02481-0.0413-0.04961 8e-3 -0.03307-8e-3 -0.08268-8e-3 -0.04961-0.0662-0.12402-0.0496-0.08268-0.19843-0.20671-0.28939-0.23978-0.78549-0.23978-0.24804 0-0.47129 0.10749-0.22324 0.09922-0.39687 0.28939-0.16537 0.19017-0.27285 0.45475-0.0992 0.26458-0.0992 0.59531t0.0992 0.61185q0.10748 0.28112 0.28112 0.48783 0.1819 0.19844 0.42168 0.31419 0.24804 0.11576 0.5457 0.11576 0.58705 0 1.0087-0.47956l0.35554 0.42168q-0.57878 0.61185-1.4139 0.60358-0.41341 0-0.76894-0.14883-0.34727-0.1571-0.61185-0.42168-0.25632-0.27285-0.40515-0.63665-0.14056-0.37207-0.14056-0.81029 0-0.42995 0.14056-0.80202 0.14883-0.38034 0.40515-0.64492 0.26458-0.26458 0.62011-0.41341 0.36381-0.1571 0.78549-0.1571 0.45475 0 0.82682 0.19017 0.38034 0.19017 0.62012 0.52917z"/><path d="m216.78 52.405h1.3312v4.3408q0 0.44648 0.19843 0.64492 0.20671 0.19017 0.57051 0.19017 0.29766 0 0.72761-0.19017l0.1819 0.51263q-0.27285 0.09922-0.4961 0.16536-0.22324 0.07441-0.56224 0.07441-0.64492 0-0.93431-0.3638t-0.28939-1.0831v-3.7372h-0.7276z"/><path d="m221.03 54.629q0.51263-0.5457 1.3808-0.53744 0.71107 0 1.1162 0.3638 0.41341 0.35553 0.41341 1.1906v2.3978h-0.57051v-0.42168q-0.62011 0.51263-1.3891 0.51263-0.30592 0-0.5457-0.09095t-0.41341-0.23978q-0.16537-0.1571-0.25632-0.34727-0.0909-0.19844-0.0909-0.39688 0-0.58704 0.50436-0.91777 0.50436-0.339 1.4552-0.37207h0.72761v-0.14883q0-0.57878-0.24805-0.80202-0.23978-0.23151-0.74414-0.23151-0.62839 0-1.0418 0.42995zm2.3564 1.604h-0.14883q-0.11575 0-0.22324 0-0.0992-0.0083-0.20671-0.0083-0.46302 0-0.76067 0.06614-0.29766 0.05788-0.47129 0.17363-0.16537 0.10749-0.23151 0.24805-0.0579 0.14056-0.0579 0.29766 0 0.27285 0.23151 0.47129 0.23978 0.19017 0.58704 0.19017 0.25632 0 0.45476-0.08268 0.2067-0.08268 0.35553-0.19017 0.1571-0.11576 0.24805-0.23978 0.0909-0.12402 0.14056-0.21497 0.0827-0.16536 0.0827-0.45475z"/><path d="m228.15 54.687-0.35553 0.53744q-0.0413-0.0083-0.0413-0.06614 0-0.05788-0.0165-0.08268-0.14883-0.19844-0.42994-0.3638-0.28112-0.16536-0.63666-0.16536-0.1571 0-0.30592 0.04134-0.14883 0.03307-0.26459 0.10749-0.11575 0.06614-0.1819 0.17363-0.0661 0.09922-0.0661 0.23978 0 0.09922 0.0496 0.1819 0.0496 0.07441 0.15709 0.1571 0.11576 0.07441 0.31419 0.14883 0.19844 0.07441 0.5209 0.17363 0.72761 0.19844 1.0253 0.46302 0.30593 0.26458 0.30593 0.65319 0 0.25632-0.11576 0.48783-0.10748 0.22324-0.32246 0.39688-0.2067 0.16536-0.50436 0.26458-0.29766 0.09095-0.66973 0.09095-0.97565 0-1.6371-0.60358l0.34727-0.61185q0.0248 0.02481 0.0331 0.08268 8e-3 0.04961 0.0579 0.13229 0.0579 0.07441 0.19017 0.17363 0.14056 0.09095 0.41341 0.20671 0.12402 0.05788 0.28939 0.09095 0.16536 0.0248 0.32246 0.0248 0.16536 0 0.339-0.04134 0.1819-0.04134 0.31419-0.12402 0.14056-0.08268 0.22324-0.19844 0.0909-0.11576 0.0909-0.25632 0-0.22324-0.2067-0.37207-0.19844-0.14883-0.74414-0.31419-0.37207-0.10749-0.48783-0.14883-0.30592-0.11576-0.44648-0.20671-0.1323-0.09095-0.24805-0.21497-0.10749-0.12402-0.17363-0.28112-0.0662-0.1571-0.0662-0.339 0-0.20671 0.10749-0.38861 0.11575-0.19017 0.31419-0.33073 0.19844-0.14883 0.47129-0.23151 0.27285-0.09095 0.59531-0.09095 0.8847-0.0083 1.4387 0.60358z"/><path d="m232.39 54.687-0.35553 0.53744q-0.0413-0.0083-0.0413-0.06614 0-0.05788-0.0165-0.08268-0.14883-0.19844-0.42995-0.3638t-0.63665-0.16536q-0.1571 0-0.30593 0.04134-0.14882 0.03307-0.26458 0.10749-0.11575 0.06614-0.1819 0.17363-0.0661 0.09922-0.0661 0.23978 0 0.09922 0.0496 0.1819 0.0496 0.07441 0.1571 0.1571 0.11575 0.07441 0.31419 0.14883 0.19844 0.07441 0.5209 0.17363 0.72761 0.19844 1.0253 0.46302 0.30593 0.26458 0.30593 0.65319 0 0.25632-0.11576 0.48783-0.10749 0.22324-0.32246 0.39688-0.20671 0.16536-0.50436 0.26458-0.29766 0.09095-0.66973 0.09095-0.97565 0-1.6371-0.60358l0.34727-0.61185q0.0248 0.02481 0.0331 0.08268 8e-3 0.04961 0.0579 0.13229 0.0579 0.07441 0.19017 0.17363 0.14056 0.09095 0.41341 0.20671 0.12402 0.05788 0.28939 0.09095 0.16536 0.0248 0.32246 0.0248 0.16536 0 0.33899-0.04134 0.18191-0.04134 0.3142-0.12402 0.14056-0.08268 0.22324-0.19844 0.0909-0.11576 0.0909-0.25632 0-0.22324-0.20671-0.37207-0.19843-0.14883-0.74414-0.31419-0.37207-0.10749-0.48782-0.14883-0.30593-0.11576-0.44649-0.20671-0.13229-0.09095-0.24804-0.21497-0.10749-0.12402-0.17364-0.28112-0.0661-0.1571-0.0661-0.339 0-0.20671 0.10748-0.38861 0.11576-0.19017 0.3142-0.33073 0.19844-0.14883 0.47129-0.23151 0.27285-0.09095 0.59531-0.09095 0.8847-0.0083 1.4387 0.60358z"/><path d="m233.29 58.044v-3.8695h0.55397v0.38034q0.13229-0.21497 0.34726-0.339 0.21498-0.13229 0.45476-0.13229 0.24804 0 0.43821 0.16536 0.19017 0.1571 0.23978 0.39688 0.10749-0.25632 0.339-0.40514 0.23978-0.1571 0.5209-0.1571 0.39687 0 0.57877 0.28112 0.19017 0.28112 0.17364 0.71107v2.9683h-0.55397v-2.7451q0-0.26458-0.0248-0.41341t-0.0909-0.23151q-0.0579-0.08268-0.11575-0.09922-0.0579-0.02481-0.14883-0.02481-0.10749 0-0.22325 0.09095-0.10748 0.09095-0.19843 0.22324-0.0827 0.13229-0.13229 0.30592-0.0496 0.17363-0.0496 0.339v2.5549h-0.57051v-2.6954q0-0.47956-0.0909-0.63665-0.0827-0.16536-0.30593-0.16536-0.2067 0-0.39687 0.23978t-0.19017 0.678v2.5797z"/><path d="m237.97 54.629q0.51263-0.5457 1.3808-0.53744 0.71107 0 1.1162 0.3638 0.41342 0.35553 0.41342 1.1906v2.3978h-0.57051v-0.42168q-0.62012 0.51263-1.3891 0.51263-0.30593 0-0.54571-0.09095t-0.41341-0.23978q-0.16536-0.1571-0.25631-0.34727-0.091-0.19844-0.091-0.39688 0-0.58704 0.50437-0.91777 0.50436-0.339 1.4552-0.37207h0.7276v-0.14883q0-0.57878-0.24805-0.80202-0.23978-0.23151-0.74414-0.23151-0.62838 0-1.0418 0.42995zm2.3564 1.604h-0.14882q-0.11576 0-0.22325 0-0.0992-0.0083-0.2067-0.0083-0.46302 0-0.76068 0.06614-0.29766 0.05788-0.47129 0.17363-0.16536 0.10749-0.23151 0.24805-0.0579 0.14056-0.0579 0.29766 0 0.27285 0.23151 0.47129 0.23978 0.19017 0.58705 0.19017 0.25631 0 0.45475-0.08268 0.20671-0.08268 0.35554-0.19017 0.15709-0.11576 0.24804-0.23978 0.091-0.12402 0.14056-0.21497 0.0827-0.16536 0.0827-0.45475z"/><path d="m243.03 53.141 0.66146-0.10749q0 0.07441-0.0248 0.13229-0.0165 0.05788-0.0248 0.09095l-0.0992 0.91777h1.2733v0.49609h-1.2733q-0.0744 0.75241-0.0744 1.4139 0 0.40514 0.0165 0.68626t0.0827 0.44648q0.0744 0.1571 0.20671 0.24805 0.14056 0.09095 0.37207 0.09095 0.38861 0 0.8599-0.34727l0.19017 0.47956q-0.58705 0.42995-1.2072 0.42995-0.61185 0-0.89296-0.3638-0.27286-0.37207-0.24805-1.1989 0-0.30592 0.0165-0.77721 0.0165-0.47956 0.0661-1.1079h-0.90124v-0.49609h0.92605z"/><path d="m247.86 54.084q0.30592 0 0.59531 0.10749t0.50436 0.339q0.21498 0.22324 0.34727 0.57051t0.13229 0.81856q0 0.06615-8e-3 0.14056 0 0.07441-8e-3 0.14056h-2.7533q0.0165 0.40514 0.14056 0.678 0.12403 0.27285 0.30593 0.44648 0.19017 0.16536 0.41341 0.23978 0.23151 0.07441 0.46302 0.07441 0.60358 0 0.99219-0.42995l0.339 0.33073q-0.48783 0.59531-1.3477 0.58704-0.42168 0-0.77721-0.13229-0.35553-0.13229-0.60358-0.38034-0.23978-0.25632-0.38034-0.62839-0.13229-0.38034-0.13229-0.8599 0-0.48783 0.14056-0.86816 0.14056-0.38861 0.38034-0.64492t0.56224-0.38861q0.32246-0.14056 0.69453-0.14056zm-1.1658 1.6371h2.1249q0-0.03307 0-0.05788 8e-3 -0.03307 8e-3 -0.07441 0-0.21497-0.0827-0.40514-0.0827-0.19017-0.21497-0.32246-0.1323-0.14056-0.3142-0.22324-0.1819-0.09095-0.39687-0.09095-0.39688 0-0.71934 0.28112t-0.40514 0.89297z"/><path d="m253.55 54.687-0.35553 0.53744q-0.0413-0.0083-0.0413-0.06614 0-0.05788-0.0165-0.08268-0.14883-0.19844-0.42995-0.3638t-0.63665-0.16536q-0.1571 0-0.30592 0.04134-0.14883 0.03307-0.26459 0.10749-0.11575 0.06614-0.1819 0.17363-0.0661 0.09922-0.0661 0.23978 0 0.09922 0.0496 0.1819 0.0496 0.07441 0.1571 0.1571 0.11576 0.07441 0.31419 0.14883 0.19844 0.07441 0.5209 0.17363 0.72761 0.19844 1.0253 0.46302 0.30593 0.26458 0.30593 0.65319 0 0.25632-0.11576 0.48783-0.10748 0.22324-0.32246 0.39688-0.2067 0.16536-0.50436 0.26458-0.29766 0.09095-0.66973 0.09095-0.97565 0-1.6371-0.60358l0.34727-0.61185q0.0248 0.02481 0.0331 0.08268 8e-3 0.04961 0.0579 0.13229 0.0579 0.07441 0.19017 0.17363 0.14056 0.09095 0.41341 0.20671 0.12402 0.05788 0.28939 0.09095 0.16536 0.0248 0.32246 0.0248 0.16536 0 0.339-0.04134 0.1819-0.04134 0.31419-0.12402 0.14056-0.08268 0.22324-0.19844 0.091-0.11576 0.091-0.25632 0-0.22324-0.2067-0.37207-0.19844-0.14883-0.74414-0.31419-0.37207-0.10749-0.48783-0.14883-0.30592-0.11576-0.44648-0.20671-0.1323-0.09095-0.24805-0.21497-0.10749-0.12402-0.17363-0.28112-0.0661-0.1571-0.0661-0.339 0-0.20671 0.10749-0.38861 0.11575-0.19017 0.31419-0.33073 0.19844-0.14883 0.47129-0.23151 0.27285-0.09095 0.59531-0.09095 0.8847-0.0083 1.4387 0.60358z"/></g></g></svg>
