<?xml version="1.0" encoding="UTF-8" standalone="no"?>
<svg
   sodipodi:docname="logo_inkscape.svg"
   inkscape:version="1.2.2 (732a01da63, 2022-12-09)"
   inkscape:export-ydpi="96.000008"
   inkscape:export-xdpi="96.000008"
   inkscape:export-filename="D:\watasuke\Desktop\bitmap.png"
   id="svg8"
   version="1.1"
   viewBox="0 0 270.93332 67.733335"
   height="256"
   width="1024"
   xmlns:inkscape="http://www.inkscape.org/namespaces/inkscape"
   xmlns:sodipodi="http://sodipodi.sourceforge.net/DTD/sodipodi-0.dtd"
   xmlns="http://www.w3.org/2000/svg"
   xmlns:svg="http://www.w3.org/2000/svg"
   xmlns:rdf="http://www.w3.org/1999/02/22-rdf-syntax-ns#"
   xmlns:cc="http://creativecommons.org/ns#"
   xmlns:dc="http://purl.org/dc/elements/1.1/">
  <defs
     id="defs2">
    <clipPath
       id="clipPath1465"
       clipPathUnits="userSpaceOnUse">
      <circle
         style="fill:#cacaca;fill-opacity:1;stroke:none;stroke-width:0.325062;stroke-opacity:1;paint-order:stroke fill markers"
         id="circle1467"
         cy="67.73333"
         cx="67.73333"
         r="64" />
    </clipPath>
  </defs>
  <sodipodi:namedview
     inkscape:window-maximized="1"
     inkscape:window-y="-5"
     inkscape:window-x="371"
     inkscape:window-height="1057"
     inkscape:window-width="1920"
     units="px"
     showgrid="false"
     inkscape:document-rotation="0"
     inkscape:current-layer="g2344"
     inkscape:document-units="mm"
     inkscape:cy="152.59783"
     inkscape:cx="488.31304"
     inkscape:zoom="1.1795712"
     inkscape:pageshadow="2"
     inkscape:pageopacity="0"
     borderopacity="1.0"
     bordercolor="#666666"
     pagecolor="#ffffff"
     id="base"
     inkscape:showpageshadow="0"
     inkscape:pagecheckerboard="0"
     inkscape:deskcolor="#d1d1d1" />
  <metadata
     id="metadata5">
    <rdf:RDF>
      <cc:Work
         rdf:about="">
        <dc:format>image/svg+xml</dc:format>
        <dc:type
           rdf:resource="http://purl.org/dc/dcmitype/StillImage" />
      </cc:Work>
    </rdf:RDF>
  </metadata>
  <g
     inkscape:groupmode="layer"
     id="layer2"
     inkscape:label="bg">
    <rect
       style="fill:#282c34;fill-opacity:1;stroke:none;stroke-width:0.99517;stroke-linecap:round;stroke-linejoin:round;paint-order:markers stroke fill"
       id="rect2483"
       width="270.93332"
       height="67.098907"
       x="0.3172147"
       y="0.3172147"
       inkscape:label="rect" />
  </g>
  <g
     id="layer1"
     inkscape:groupmode="layer"
     inkscape:label="main">
    <g
       id="g352"
       transform="matrix(0.46666667,0,0,0.46666667,3.1549945,2.2577792)"
       inkscape:label="icon">
      <path
         d="m 131.23333,67.73333 a 63.5,63.5 0 0 1 -63.499737,63.5 A 63.5,63.5 0 0 1 4.2333298,67.733857 63.5,63.5 0 0 1 67.732539,4.2333298 63.5,63.5 0 0 1 131.23333,67.732275 l -63.5,0.0011 z"
         sodipodi:arc-type="slice"
         sodipodi:end="6.2831687"
         sodipodi:start="0"
         sodipodi:ry="63.5"
         sodipodi:rx="63.5"
         sodipodi:cy="67.73333"
         sodipodi:cx="67.73333"
         sodipodi:type="arc"
         id="path836"
         style="opacity:0.999;fill:#e6e6e6;fill-opacity:1;stroke-width:1.41984"
         inkscape:label="circle" />
      <path
         d="m 130.80283,21.372184 v 19.740059 h -16.45005 l 7.89603,7.84119 L 51.952261,119.24998 5.3437882,72.641505 75.640332,2.3449603 83.481523,10.240984 V -6.2090654 H 103.22158 V 21.372184 Z M 91.377546,1.6869583 V 24.826694 c 1.35256,-1.242893 2.668564,-2.558896 3.948012,-3.948011 V 1.6869583 Z M 122.90681,33.21622 v -3.948012 h -19.19173 c -1.38911,1.279448 -2.70512,2.595452 -3.948008,3.948012 z"
         style="font-style:normal;font-weight:normal;font-size:112.299px;line-height:1.25;font-family:sans-serif;fill:#20203c;fill-opacity:1;stroke:none;stroke-width:1.39448;stroke-miterlimit:4;stroke-dasharray:none;stroke-opacity:1;paint-order:stroke fill markers"
         id="path839"
         sodipodi:nodetypes="cccccccccccccccccccccc"
         inkscape:export-filename="D:\watasuke\Desktop\path839.png"
         inkscape:export-xdpi="109.22667"
         inkscape:export-ydpi="109.22667"
         inkscape:label="tag"
         transform="matrix(0.71703349,0,0,0.71703343,16.805824,31.439608)" />
    </g>
    <g
       id="g2344"
       transform="translate(0,0.78198562)"
       inkscape:label="logo_text">
      <g
         aria-label="TAGether"
         id="text347"
         style="font-size:45.1556px;font-family:'Mplus 1p';-inkscape-font-specification:'Mplus 1p';letter-spacing:-1.64971px;stroke-width:1.15775"
         transform="translate(-1.2688588,-5.8208336)"
         inkscape:label="TAGether">
        <path
           d="m 69.823822,17.610649 h 25.191011 l -1.12308,3.070581 H 83.686591 V 50.574238 H 80.074143 V 20.68123 H 69.823822 Z"
           style="fill:#a494fe"
           id="path2962"
           sodipodi:nodetypes="ccccccccc"
           inkscape:label="T" />
        <path
           d="M 90.568561,50.574238 102.62511,17.610649 h 4.064 l 12.01139,32.963589 h -3.83823 l -3.34151,-9.618143 H 97.612835 l -3.296359,9.618143 z m 8.037697,-12.508102 h 11.921082 l -5.91539,-17.204284 h -0.0903 z"
           style="fill:#a494fe"
           id="path2964"
           inkscape:label="A" />
        <path
           d="m 135.38128,20.094207 c -4.24463,0 -7.58614,1.264357 -10.02455,3.79307 -2.4083,2.528714 -3.61245,5.930436 -3.61245,10.205166 0,4.304834 1.24931,7.721608 3.74792,10.250322 2.52871,2.49861 5.93044,3.747915 10.20517,3.747915 2.67923,0 5.13268,-0.496712 7.36036,-1.490135 V 34.273066 h -11.42437 l -1.05305,-2.889959 h 15.9544 v 17.159129 c -3.40172,1.655705 -7.11953,2.483558 -11.15343,2.483558 -5.23805,0 -9.43753,-1.535291 -12.59842,-4.605872 -3.13078,-3.070581 -4.69618,-7.17974 -4.69618,-12.327479 0,-5.147739 1.53529,-9.256898 4.60587,-12.327479 3.07058,-3.070581 7.20984,-4.605871 12.41779,-4.605871 2.72326,0 5.23269,0.458218 7.52828,1.374653 -0.37137,-0.928007 0.72576,1.991262 1.45769,3.998863 -2.70934,-1.625601 -5.61435,-2.438402 -8.71503,-2.438402 z"
           style="fill:#a494fe"
           id="path2966"
           sodipodi:nodetypes="scscsccccccscsssccs"
           inkscape:label="G" />
        <path
           d="m 156.17267,40.098138 q 0.0903,3.838226 2.34809,6.050851 2.25778,2.212624 5.87023,2.212624 3.47698,0 6.90881,-1.806224 l 0.90311,2.57387 q -3.79307,1.896535 -8.12801,1.896535 -5.05742,0 -8.17316,-3.296359 -3.11574,-3.296359 -3.11574,-8.895654 0,-5.689605 2.88996,-8.940809 2.93512,-3.251203 7.94739,-3.251203 4.8768,0 7.54098,3.115737 2.70934,3.07058 2.70934,8.850497 0,0.587023 -0.0903,1.490135 z m 0,-2.619025 h 14.4498 q -0.0452,-3.928537 -1.89654,-6.05085 -1.85138,-2.122313 -5.10258,-2.122313 -3.38667,0 -5.37352,2.167468 -1.94169,2.122314 -2.07716,6.005695 z"
           id="path2968"
           style="fill:#abb2bf;fill-opacity:1;stroke:none;stroke-opacity:1"
           inkscape:label="e" />
        <path
           d="m 186.29145,19.416873 v 8.579564 h 8.89565 v 2.709336 h -8.89565 v 12.327479 q 0,3.160892 0.85796,4.244627 0.85795,1.038579 3.20604,1.038579 2.07716,0 3.9737,-0.767645 l 0.54186,2.66418 q -2.30293,0.812801 -4.96711,0.812801 -3.83823,0 -5.41867,-1.625602 -1.58045,-1.670757 -1.58045,-5.734761 V 30.705773 h -5.19289 v -2.709336 h 5.19289 v -8.579564 z"
           id="path2970"
           style="fill:#abb2bf;fill-opacity:1;stroke:none;stroke-opacity:1"
           inkscape:label="t" />
        <path
           d="m 202.18618,16.707537 h 3.29636 v 14.404637 h 0.0903 q 2.98027,-4.470405 7.90223,-4.470405 3.9737,0 5.87023,2.483558 1.94169,2.438403 1.94169,7.766764 v 13.682147 h -3.2512 V 37.163024 q 0,-4.380093 -1.26436,-6.05085 -1.26435,-1.715913 -4.33494,-1.715913 -2.70933,0 -4.83164,2.66418 -2.12232,2.619025 -2.12232,5.96054 v 12.553257 h -3.29636 z"
           id="path2972"
           style="fill:#abb2bf;fill-opacity:1;stroke:none;stroke-opacity:1"
           inkscape:label="h" />
        <path
           d="m 229.64078,40.098138 q 0.0903,3.838226 2.34809,6.050851 2.25778,2.212624 5.87023,2.212624 3.47698,0 6.90881,-1.806224 l 0.90311,2.57387 q -3.79307,1.896535 -8.12801,1.896535 -5.05742,0 -8.17316,-3.296359 -3.11574,-3.296359 -3.11574,-8.895654 0,-5.689605 2.88996,-8.940809 2.93511,-3.251203 7.94739,-3.251203 4.8768,0 7.54098,3.115737 2.70934,3.07058 2.70934,8.850497 0,0.587023 -0.0903,1.490135 z m 0,-2.619025 h 14.44979 q -0.0452,-3.928537 -1.89653,-6.05085 -1.85138,-2.122313 -5.10258,-2.122313 -3.38667,0 -5.37352,2.167468 -1.94169,2.122314 -2.07716,6.005695 z"
           id="path2974"
           style="fill:#abb2bf;fill-opacity:1;stroke:none;stroke-opacity:1"
           inkscape:label="e" />
        <path
           d="m 252.76045,27.093325 h 3.20604 l 0.0903,5.012272 h 0.0903 q 3.97369,-5.463828 11.19859,-5.463828 v 2.844803 q -5.01228,0 -8.12801,2.754492 -3.07058,2.754491 -3.07058,7.134585 v 11.198589 h -3.38667 z"
           id="path2976"
           style="fill:#abb2bf;fill-opacity:1;stroke:none;stroke-opacity:1"
           inkscape:label="r" />
      </g>
      <g
         aria-label="Share your self-made exam with classmates"
         id="text379"
         style="font-size:8.46667px;line-height:1.25;font-family:MyricaM;-inkscape-font-specification:'MyricaM, Normal';fill:#abb2bf;stroke-width:0.264583"
         inkscape:label="exp">
        <path
           d="m 84.244964,53.3975 -0.37207,0.504362 q -0.04134,-0.01654 -0.04961,-0.06615 0,-0.05788 -0.01654,-0.08268 -0.157097,-0.239779 -0.438217,-0.380339 -0.272851,-0.148828 -0.677995,-0.148828 -0.388607,0 -0.65319,0.231511 -0.256315,0.23151 -0.256315,0.545703 0,0.190169 0.06615,0.322461 0.06615,0.132292 0.198437,0.264584 0.132292,0.124023 0.380339,0.256315 0.256315,0.124023 0.661459,0.289388 0.388606,0.157096 0.644922,0.314193 0.256315,0.157096 0.405143,0.338997 0.157096,0.173633 0.214974,0.372071 0.06615,0.198437 0.06615,0.446484 0,0.272852 -0.107487,0.545704 -0.09922,0.272851 -0.314193,0.487825 -0.214974,0.214974 -0.545703,0.355534 -0.33073,0.132292 -0.793751,0.132292 -1.02526,0 -1.653646,-0.677995 l 0.347266,-0.603581 q 0.04134,0.02481 0.04134,0.08268 0,0.05788 0.02481,0.09095 0.198437,0.248047 0.529166,0.413411 0.33073,0.165365 0.793751,0.165365 0.239779,0 0.438216,-0.08268 0.198438,-0.08268 0.338998,-0.206706 0.148828,-0.132292 0.23151,-0.314193 0.08268,-0.190169 0.08268,-0.388607 0,-0.157096 -0.05788,-0.289388 -0.04961,-0.132292 -0.181901,-0.248047 -0.124024,-0.115755 -0.355534,-0.23151 -0.231511,-0.115756 -0.611849,-0.264584 -0.413412,-0.157096 -0.694532,-0.322461 -0.272852,-0.165365 -0.446485,-0.330729 -0.165364,-0.173633 -0.239778,-0.363802 -0.06615,-0.198438 -0.06615,-0.429949 0,-0.289388 0.115755,-0.537435 0.124024,-0.256315 0.338998,-0.446484 0.223242,-0.19017 0.51263,-0.297657 0.297656,-0.107487 0.636654,-0.107487 0.429948,0 0.810287,0.173633 0.380338,0.173633 0.65319,0.487826 z"
           style="text-align:center;text-anchor:middle"
           id="path2418" />
        <path
           d="M 85.394248,58.044247 V 52.41358 h 0.7028 q 0,0.0083 0,0.0083 0.0083,0 0.0083,0.0083 0,0.02481 -0.04134,0.07441 -0.04134,0.04134 -0.05788,0.115755 v 2.240691 q 0.23151,-0.355534 0.570508,-0.56224 0.347265,-0.214974 0.702799,-0.214974 0.264584,0 0.479558,0.09095 0.214974,0.08268 0.37207,0.28112 0.165365,0.190169 0.248047,0.496094 0.08268,0.305924 0.08268,0.744141 v 2.348178 H 87.86645 v -2.331642 q 0,-0.611849 -0.206706,-0.851628 -0.206706,-0.248047 -0.504362,-0.248047 -0.198438,0 -0.396875,0.09095 -0.19017,0.08268 -0.372071,0.239779 -0.181901,0.148828 -0.28112,0.37207 -0.09922,0.214974 -0.09922,0.504362 v 2.224155 z"
           style="text-align:center;text-anchor:middle"
           id="path2420" />
        <path
           d="m 89.801216,54.629467 q 0.512631,-0.545704 1.380795,-0.537435 0.711068,0 1.116211,0.363802 0.413412,0.355534 0.413412,1.190625 v 2.397788 h -0.570508 v -0.42168 q -0.620117,0.51263 -1.389063,0.51263 -0.305925,0 -0.545703,-0.09095 -0.239779,-0.09095 -0.413412,-0.239779 -0.165365,-0.157096 -0.256315,-0.347266 -0.09095,-0.198437 -0.09095,-0.396875 0,-0.587044 0.504362,-0.917774 0.504363,-0.338997 1.455209,-0.37207 h 0.727605 v -0.148828 q 0,-0.578777 -0.248047,-0.802019 -0.239779,-0.23151 -0.744141,-0.23151 -0.628386,0 -1.041797,0.429948 z m 2.356447,1.604037 h -0.148829 q -0.115755,0 -0.223242,0 -0.09922,-0.0083 -0.206706,-0.0083 -0.463021,0 -0.760677,0.06614 -0.297656,0.05788 -0.471289,0.173633 -0.165365,0.107487 -0.231511,0.248047 -0.05788,0.14056 -0.05788,0.297657 0,0.272851 0.231511,0.471289 0.239779,0.190169 0.587045,0.190169 0.256315,0 0.454752,-0.08268 0.206706,-0.08268 0.355534,-0.190169 0.157097,-0.115756 0.248047,-0.239779 0.09095,-0.124024 0.14056,-0.214974 0.08268,-0.165365 0.08268,-0.454753 z"
           style="text-align:center;text-anchor:middle"
           id="path2422" />
        <path
           d="m 93.819577,54.174714 h 1.157552 l -0.0248,0.744141 q 0.190169,-0.380339 0.529167,-0.603581 0.338997,-0.223242 0.752409,-0.223242 0.587044,0 1.000456,0.413411 l -0.289388,0.587045 -0.08268,-0.107487 Q 96.614239,54.61293 96.19256,54.61293 q -0.248047,0 -0.47129,0.14056 -0.223242,0.14056 -0.396875,0.355534 -0.173633,0.214974 -0.272852,0.463021 -0.09922,0.239779 -0.09922,0.520899 v 1.49655 h 0.810286 v 0.463021 H 93.80304 v -0.463021 h 0.545704 V 54.66254 h -0.529167 z"
           style="text-align:center;text-anchor:middle"
           id="path2424" />
        <path
           d="m 99.690022,54.083763 q 0.305925,0 0.595318,0.107487 0.28938,0.107487 0.50436,0.338998 0.21497,0.223242 0.34726,0.570508 0.13229,0.347266 0.13229,0.818555 0,0.06615 -0.008,0.14056 0,0.07441 -0.008,0.14056 h -2.753323 q 0.01654,0.405143 0.14056,0.677995 0.124023,0.272852 0.305924,0.446484 0.19017,0.165365 0.413412,0.239779 0.231511,0.07441 0.463021,0.07441 0.603576,0 0.992186,-0.429948 l 0.339,0.330729 q -0.48783,0.595313 -1.347722,0.587045 -0.42168,0 -0.777214,-0.132292 -0.355534,-0.132291 -0.603581,-0.380338 -0.239779,-0.256316 -0.380339,-0.628386 -0.132292,-0.380339 -0.132292,-0.859896 0,-0.487826 0.14056,-0.868165 0.14056,-0.388607 0.380339,-0.644922 0.239779,-0.256315 0.56224,-0.388607 0.322461,-0.14056 0.694531,-0.14056 z m -1.16582,1.63711 h 2.124938 q 0,-0.03307 0,-0.05788 0.008,-0.03307 0.008,-0.07441 0,-0.214974 -0.0827,-0.405144 -0.0827,-0.190169 -0.21497,-0.322461 -0.13229,-0.14056 -0.31419,-0.223242 -0.181905,-0.09095 -0.396879,-0.09095 -0.396875,0 -0.719336,0.28112 -0.322461,0.28112 -0.405143,0.892969 z"
           style="text-align:center;text-anchor:middle"
           id="path2426" />
        <path
           d="m 106.4617,54.447566 -0.10748,-0.272852 h 0.75241 q 0,0.06615 -0.0165,0.115755 -0.0165,0.04134 -0.0165,0.09095 0,0.03307 0.0165,0.04961 l 1.13275,2.844272 0.73587,-2.075326 q 0.10749,-0.297657 0.17363,-0.553972 0.0744,-0.256315 0.11576,-0.471289 h 0.63665 q -0.0744,0.223242 -0.16536,0.504362 -0.091,0.272852 -0.21498,0.611849 l -1.05006,2.769858 -0.1571,0.42168 q -0.2067,0.570508 -0.52917,0.802019 -0.31419,0.23151 -0.7276,0.23151 -0.55397,0 -0.8847,-0.330729 l 0.31419,-0.537435 q 0.0248,0.0248 0.0413,0.07441 0.0248,0.05788 0.0331,0.07441 0,0 0.0331,0.04134 0.0331,0.03307 0.0827,0.07441 0.0579,0.04134 0.14056,0.07441 0.0909,0.03307 0.19017,0.03307 0.24805,0 0.43822,-0.157096 0.19017,-0.148828 0.37207,-0.545704 l 0.12402,-0.289388 z"
           style="text-align:center;text-anchor:middle"
           id="path2428" />
        <path
           d="m 112.34869,54.092032 q 0.35553,0 0.66972,0.14056 0.32246,0.140559 0.55397,0.405143 0.23978,0.256315 0.38034,0.636654 0.14056,0.37207 0.14056,0.84336 0,0.471289 -0.14056,0.843359 -0.13229,0.372071 -0.37207,0.636654 -0.23151,0.264584 -0.55397,0.405144 -0.32246,0.140559 -0.68626,0.140559 -0.37207,0 -0.7028,-0.148828 -0.32246,-0.157096 -0.57051,-0.42168 -0.23978,-0.264583 -0.38861,-0.636653 -0.14056,-0.372071 -0.14056,-0.802019 0,-0.429948 0.14883,-0.810287 0.14883,-0.388607 0.39688,-0.65319 0.24804,-0.264584 0.57877,-0.42168 0.33073,-0.157096 0.68627,-0.157096 z m 1.13274,2.042253 q 0,-0.363802 -0.0992,-0.644922 -0.091,-0.289388 -0.25631,-0.479558 -0.1571,-0.198437 -0.3638,-0.297656 -0.20671,-0.107487 -0.43822,-0.107487 -0.23151,0 -0.43822,0.107487 -0.2067,0.09922 -0.3638,0.297656 -0.15709,0.19017 -0.24804,0.463021 -0.091,0.272852 -0.091,0.620118 0,0.338997 0.091,0.620117 0.0909,0.28112 0.24804,0.487826 0.1571,0.198438 0.3638,0.314193 0.21498,0.107487 0.45476,0.107487 0.23978,0 0.44648,-0.09922 0.20671,-0.09922 0.3638,-0.289388 0.1571,-0.190169 0.23978,-0.463021 0.091,-0.28112 0.091,-0.636654 z"
           style="text-align:center;text-anchor:middle"
           id="path2430" />
        <path
           d="m 114.96972,54.174714 h 0.60358 v 2.158009 q 0,0.37207 0.0661,0.628385 0.0744,0.248047 0.19017,0.396875 0.12403,0.148829 0.28112,0.223243 0.1571,0.06615 0.34727,0.06615 0.2067,-0.01654 0.3886,-0.09922 0.18191,-0.09095 0.33073,-0.248047 0.14883,-0.157097 0.23151,-0.396875 0.091,-0.248047 0.091,-0.595313 v -2.133204 h 0.61184 v 3.522267 q 0,0.198437 0.0496,0.347266 h -0.64492 q -0.008,-0.05788 -0.0165,-0.132292 -0.008,-0.07441 0,-0.165365 l 0.008,-0.297656 q -0.19017,0.322461 -0.51263,0.504362 -0.31419,0.181901 -0.69453,0.181901 -0.29766,0 -0.53743,-0.09922 -0.23151,-0.107487 -0.42168,-0.330729 -0.19017,-0.223242 -0.28939,-0.56224 -0.0992,-0.338997 -0.0992,-0.810286 z"
           style="text-align:center;text-anchor:middle"
           id="path2432" />
        <path
           d="m 119.21959,54.174714 h 1.15755 l -0.0248,0.744141 q 0.19017,-0.380339 0.52917,-0.603581 0.339,-0.223242 0.75241,-0.223242 0.58704,0 1.00046,0.413411 l -0.28939,0.587045 -0.0827,-0.107487 q -0.24805,-0.372071 -0.66973,-0.372071 -0.24805,0 -0.47129,0.14056 -0.22324,0.14056 -0.39688,0.355534 -0.17363,0.214974 -0.27285,0.463021 -0.0992,0.239779 -0.0992,0.520899 v 1.49655 h 0.81029 v 0.463021 h -1.95957 v -0.463021 h 0.5457 V 54.66254 h -0.52916 z"
           style="text-align:center;text-anchor:middle"
           id="path2434" />
        <path
           d="m 130.78684,54.687344 -0.35553,0.537435 q -0.0413,-0.0083 -0.0413,-0.06614 0,-0.05788 -0.0165,-0.08268 -0.14883,-0.198437 -0.42995,-0.363802 -0.28112,-0.165365 -0.63665,-0.165365 -0.1571,0 -0.30592,0.04134 -0.14883,0.03307 -0.26459,0.107487 -0.11575,0.06614 -0.1819,0.173632 -0.0661,0.09922 -0.0661,0.239779 0,0.09922 0.0496,0.181901 0.0496,0.07441 0.1571,0.157097 0.11576,0.07441 0.31419,0.148828 0.19844,0.07441 0.5209,0.173633 0.72761,0.198437 1.02526,0.463021 0.30593,0.264583 0.30593,0.65319 0,0.256315 -0.11576,0.487826 -0.10748,0.223242 -0.32246,0.396875 -0.2067,0.165365 -0.50436,0.264583 -0.29766,0.09095 -0.66973,0.09095 -0.97565,0 -1.63711,-0.603581 l 0.34727,-0.611849 q 0.0248,0.02481 0.0331,0.08268 0.008,0.04961 0.0579,0.132292 0.0579,0.07441 0.19017,0.173633 0.14056,0.09095 0.41341,0.206706 0.12402,0.05788 0.28939,0.09095 0.16536,0.0248 0.32246,0.0248 0.16536,0 0.339,-0.04134 0.1819,-0.04134 0.31419,-0.124024 0.14056,-0.08268 0.22324,-0.198437 0.0909,-0.115756 0.0909,-0.256316 0,-0.223242 -0.2067,-0.37207 -0.19844,-0.148828 -0.74414,-0.314193 -0.37207,-0.107487 -0.48783,-0.148828 -0.30592,-0.115755 -0.44648,-0.206706 -0.1323,-0.09095 -0.24805,-0.214974 -0.10749,-0.124023 -0.17363,-0.28112 -0.0662,-0.157096 -0.0662,-0.338997 0,-0.206706 0.10749,-0.388607 0.11575,-0.19017 0.31419,-0.33073 0.19844,-0.148828 0.47129,-0.23151 0.27285,-0.09095 0.59531,-0.09095 0.8847,-0.0083 1.43867,0.603581 z"
           style="text-align:center;text-anchor:middle"
           id="path2436" />
        <path
           d="m 133.5567,54.083763 q 0.30593,0 0.59531,0.107487 0.28939,0.107487 0.50437,0.338998 0.21497,0.223242 0.34726,0.570508 0.13229,0.347266 0.13229,0.818555 0,0.06615 -0.008,0.14056 0,0.07441 -0.008,0.14056 h -2.75332 q 0.0165,0.405143 0.14056,0.677995 0.12402,0.272852 0.30592,0.446484 0.19017,0.165365 0.41341,0.239779 0.23151,0.07441 0.46302,0.07441 0.60358,0 0.99219,-0.429948 l 0.339,0.330729 q -0.48783,0.595313 -1.34772,0.587045 -0.42168,0 -0.77722,-0.132292 -0.35553,-0.132291 -0.60358,-0.380338 -0.23978,-0.256316 -0.38034,-0.628386 -0.13229,-0.380339 -0.13229,-0.859896 0,-0.487826 0.14056,-0.868165 0.14056,-0.388607 0.38034,-0.644922 0.23978,-0.256315 0.56224,-0.388607 0.32246,-0.14056 0.69453,-0.14056 z m -1.16582,1.63711 h 2.12494 q 0,-0.03307 0,-0.05788 0.008,-0.03307 0.008,-0.07441 0,-0.214974 -0.0827,-0.405144 -0.0827,-0.190169 -0.21497,-0.322461 -0.13229,-0.14056 -0.3142,-0.223242 -0.1819,-0.09095 -0.39687,-0.09095 -0.39688,0 -0.71934,0.28112 -0.32246,0.28112 -0.40514,0.892969 z"
           style="text-align:center;text-anchor:middle"
           id="path2438" />
        <path
           d="m 136.35137,52.405312 h 1.33118 v 4.340822 q 0,0.446485 0.19844,0.644922 0.2067,0.19017 0.57051,0.19017 0.29765,0 0.7276,-0.19017 l 0.1819,0.512631 q -0.27285,0.09922 -0.49609,0.165364 -0.22324,0.07441 -0.56224,0.07441 -0.64492,0 -0.93431,-0.363802 -0.28939,-0.363802 -0.28939,-1.083138 v -3.737241 h -0.7276 z"
           style="text-align:center;text-anchor:middle"
           id="path2440" />
        <path
           d="m 142.73444,52.363971 q 0.73587,0 1.19063,0.529167 l -0.28112,0.56224 q -0.0661,0 -0.0661,-0.06615 0,-0.06615 -0.0165,-0.09922 -0.13229,-0.198438 -0.3638,-0.322461 -0.22324,-0.124024 -0.48783,-0.124024 -0.22324,0 -0.38033,0.06615 -0.1571,0.06615 -0.28939,0.206706 -0.12403,0.14056 -0.19017,0.388607 -0.0579,0.248047 -0.0579,0.603581 v 0.297656 h 1.26504 v 0.479558 h -1.26504 v 3.158465 h -0.58704 v -3.158465 h -0.83509 v -0.479558 h 0.83509 v -0.380338 q 0,-0.446485 0.11575,-0.760678 0.11576,-0.322461 0.33073,-0.520898 0.21498,-0.198438 0.48783,-0.289388 0.27285,-0.09095 0.59531,-0.09095 z"
           style="text-align:center;text-anchor:middle"
           id="path2442" />
        <path
           d="m 144.69401,55.133829 h 2.97657 v 0.504362 h -2.97657 z"
           style="text-align:center;text-anchor:middle"
           id="path2444" />
        <path
           d="m 148.62142,58.044247 v -3.869533 h 0.55397 v 0.380339 q 0.1323,-0.214974 0.34727,-0.338998 0.21497,-0.132292 0.45475,-0.132292 0.24805,0 0.43822,0.165365 0.19017,0.157096 0.23978,0.396875 0.10748,-0.256315 0.33899,-0.405143 0.23978,-0.157097 0.5209,-0.157097 0.39688,0 0.57878,0.28112 0.19017,0.28112 0.17363,0.711068 v 2.968296 h -0.55397 v -2.745054 q 0,-0.264583 -0.0248,-0.413411 -0.0248,-0.148828 -0.0909,-0.231511 -0.0579,-0.08268 -0.11576,-0.09922 -0.0579,-0.02481 -0.14883,-0.02481 -0.10748,0 -0.22324,0.09095 -0.10749,0.09095 -0.19844,0.223243 -0.0827,0.132291 -0.13229,0.305924 -0.0496,0.173633 -0.0496,0.338998 v 2.554884 h -0.57051 v -2.695444 q 0,-0.479558 -0.0909,-0.636654 -0.0827,-0.165365 -0.30592,-0.165365 -0.20671,0 -0.39688,0.239779 -0.19017,0.239779 -0.19017,0.677995 v 2.579689 z"
           style="text-align:center;text-anchor:middle"
           id="path2446" />
        <path
           d="m 153.30124,54.629467 q 0.51263,-0.545704 1.3808,-0.537435 0.71107,0 1.11621,0.363802 0.41341,0.355534 0.41341,1.190625 v 2.397788 h -0.57051 v -0.42168 q -0.62011,0.51263 -1.38906,0.51263 -0.30592,0 -0.5457,-0.09095 -0.23978,-0.09095 -0.41341,-0.239779 -0.16537,-0.157096 -0.25632,-0.347266 -0.091,-0.198437 -0.091,-0.396875 0,-0.587044 0.50436,-0.917774 0.50436,-0.338997 1.45521,-0.37207 h 0.72761 v -0.148828 q 0,-0.578777 -0.24805,-0.802019 -0.23978,-0.23151 -0.74414,-0.23151 -0.62839,0 -1.0418,0.429948 z m 2.35645,1.604037 h -0.14883 q -0.11575,0 -0.22324,0 -0.0992,-0.0083 -0.20671,-0.0083 -0.46302,0 -0.76067,0.06614 -0.29766,0.05788 -0.47129,0.173633 -0.16537,0.107487 -0.23151,0.248047 -0.0579,0.14056 -0.0579,0.297657 0,0.272851 0.23151,0.471289 0.23978,0.190169 0.58704,0.190169 0.25632,0 0.45476,-0.08268 0.2067,-0.08268 0.35553,-0.190169 0.1571,-0.115756 0.24805,-0.239779 0.0909,-0.124024 0.14056,-0.214974 0.0827,-0.165365 0.0827,-0.454753 z"
           style="text-align:center;text-anchor:middle"
           id="path2448" />
        <path
           d="M 159.90756,54.745222 V 52.41358 h 0.65319 q 0,0.04961 -0.0413,0.115756 -0.0413,0.06614 -0.0413,0.124023 l 0.008,5.035354 q 0,0.206705 0.0413,0.355534 h -0.61185 q -0.0331,-0.09922 -0.0331,-0.289388 v -0.33073 q -0.19017,0.322461 -0.51263,0.512631 -0.32246,0.190169 -0.64492,0.190169 -0.32246,0 -0.61185,-0.124023 -0.28112,-0.124024 -0.49609,-0.380339 -0.21498,-0.256315 -0.34727,-0.636654 -0.12402,-0.388607 -0.12402,-0.917774 0,-0.537435 0.14056,-0.909505 0.14882,-0.372071 0.38034,-0.61185 0.23151,-0.248047 0.52089,-0.355534 0.28939,-0.115755 0.58705,-0.115755 0.40514,0 0.69453,0.181901 0.29766,0.181901 0.43822,0.487826 z m -1.80248,0.115755 q -0.3638,0.330729 -0.3638,1.116212 0,0.727604 0.27285,1.174089 0.28112,0.446484 0.82682,0.446484 0.12403,0 0.26459,-0.04961 0.14883,-0.04961 0.27285,-0.14056 0.13229,-0.09095 0.23151,-0.214974 0.0992,-0.132292 0.14883,-0.289388 0.0909,-0.305925 0.0992,-0.818555 0,-0.322461 -0.0248,-0.537436 -0.0248,-0.214974 -0.0827,-0.363802 -0.0579,-0.157096 -0.14056,-0.248047 -0.0827,-0.09922 -0.21497,-0.173633 -0.14883,-0.09095 -0.28112,-0.14056 -0.1323,-0.04961 -0.24805,-0.04961 -0.24805,0 -0.42168,0.07441 -0.17363,0.06615 -0.339,0.214974 z"
           style="text-align:center;text-anchor:middle"
           id="path2450" />
        <path
           d="m 163.19005,54.083763 q 0.30592,0 0.59531,0.107487 0.28939,0.107487 0.50436,0.338998 0.21498,0.223242 0.34727,0.570508 0.13229,0.347266 0.13229,0.818555 0,0.06615 -0.008,0.14056 0,0.07441 -0.008,0.14056 h -2.75332 q 0.0165,0.405143 0.14056,0.677995 0.12403,0.272852 0.30593,0.446484 0.19017,0.165365 0.41341,0.239779 0.23151,0.07441 0.46302,0.07441 0.60358,0 0.99219,-0.429948 l 0.33899,0.330729 q -0.48782,0.595313 -1.34772,0.587045 -0.42168,0 -0.77721,-0.132292 -0.35554,-0.132291 -0.60358,-0.380338 -0.23978,-0.256316 -0.38034,-0.628386 -0.13229,-0.380339 -0.13229,-0.859896 0,-0.487826 0.14056,-0.868165 0.14056,-0.388607 0.38034,-0.644922 0.23977,-0.256315 0.56224,-0.388607 0.32246,-0.14056 0.69453,-0.14056 z m -1.16582,1.63711 h 2.12493 q 0,-0.03307 0,-0.05788 0.008,-0.03307 0.008,-0.07441 0,-0.214974 -0.0827,-0.405144 -0.0827,-0.190169 -0.21498,-0.322461 -0.13229,-0.14056 -0.31419,-0.223242 -0.1819,-0.09095 -0.39687,-0.09095 -0.39688,0 -0.71934,0.28112 -0.32246,0.28112 -0.40514,0.892969 z"
           style="text-align:center;text-anchor:middle"
           id="path2452" />
        <path
           d="m 171.65671,54.083763 q 0.30593,0 0.59532,0.107487 0.28939,0.107487 0.50436,0.338998 0.21497,0.223242 0.34726,0.570508 0.1323,0.347266 0.1323,0.818555 0,0.06615 -0.008,0.14056 0,0.07441 -0.008,0.14056 h -2.75332 q 0.0165,0.405143 0.14056,0.677995 0.12402,0.272852 0.30592,0.446484 0.19017,0.165365 0.41341,0.239779 0.23152,0.07441 0.46303,0.07441 0.60358,0 0.99218,-0.429948 l 0.339,0.330729 q -0.48782,0.595313 -1.34772,0.587045 -0.42168,0 -0.77721,-0.132292 -0.35554,-0.132291 -0.60359,-0.380338 -0.23977,-0.256316 -0.38033,-0.628386 -0.1323,-0.380339 -0.1323,-0.859896 0,-0.487826 0.14056,-0.868165 0.14056,-0.388607 0.38034,-0.644922 0.23978,-0.256315 0.56224,-0.388607 0.32246,-0.14056 0.69453,-0.14056 z m -1.16582,1.63711 h 2.12494 q 0,-0.03307 0,-0.05788 0.008,-0.03307 0.008,-0.07441 0,-0.214974 -0.0827,-0.405144 -0.0827,-0.190169 -0.21498,-0.322461 -0.13229,-0.14056 -0.31419,-0.223242 -0.1819,-0.09095 -0.39688,-0.09095 -0.39687,0 -0.71933,0.28112 -0.32246,0.28112 -0.40515,0.892969 z"
           style="text-align:center;text-anchor:middle"
           id="path2454" />
        <path
           d="m 176.76648,54.174714 h 0.62012 l -1.2485,1.876889 1.42213,1.992644 h -0.69453 l -1.0666,-1.504819 -1.00872,1.504819 h -0.69453 l 1.36425,-1.96784 -1.33945,-1.901693 h 0.66973 l 1.00872,1.430404 z"
           style="text-align:center;text-anchor:middle"
           id="path2456" />
        <path
           d="m 178.70125,54.629467 q 0.51263,-0.545704 1.3808,-0.537435 0.71107,0 1.11621,0.363802 0.41341,0.355534 0.41341,1.190625 v 2.397788 h -0.57051 v -0.42168 q -0.62011,0.51263 -1.38906,0.51263 -0.30592,0 -0.5457,-0.09095 -0.23978,-0.09095 -0.41342,-0.239779 -0.16536,-0.157096 -0.25631,-0.347266 -0.0909,-0.198437 -0.0909,-0.396875 0,-0.587044 0.50436,-0.917774 0.50436,-0.338997 1.45521,-0.37207 h 0.7276 v -0.148828 q 0,-0.578777 -0.24804,-0.802019 -0.23978,-0.23151 -0.74414,-0.23151 -0.62839,0 -1.0418,0.429948 z m 2.35645,1.604037 h -0.14883 q -0.11575,0 -0.22324,0 -0.0992,-0.0083 -0.20671,-0.0083 -0.46302,0 -0.76067,0.06614 -0.29766,0.05788 -0.47129,0.173633 -0.16537,0.107487 -0.23151,0.248047 -0.0579,0.14056 -0.0579,0.297657 0,0.272851 0.23151,0.471289 0.23978,0.190169 0.58704,0.190169 0.25632,0 0.45476,-0.08268 0.2067,-0.08268 0.35553,-0.190169 0.1571,-0.115756 0.24805,-0.239779 0.0909,-0.124024 0.14056,-0.214974 0.0827,-0.165365 0.0827,-0.454753 z"
           style="text-align:center;text-anchor:middle"
           id="path2458" />
        <path
           d="m 182.4881,58.044247 v -3.869533 h 0.55397 v 0.380339 q 0.13229,-0.214974 0.34727,-0.338998 0.21497,-0.132292 0.45475,-0.132292 0.24805,0 0.43821,0.165365 0.19017,0.157096 0.23978,0.396875 0.10749,-0.256315 0.339,-0.405143 0.23978,-0.157097 0.5209,-0.157097 0.39687,0 0.57878,0.28112 0.19017,0.28112 0.17363,0.711068 v 2.968296 h -0.55397 v -2.745054 q 0,-0.264583 -0.0248,-0.413411 -0.0248,-0.148828 -0.0909,-0.231511 -0.0579,-0.08268 -0.11575,-0.09922 -0.0579,-0.02481 -0.14883,-0.02481 -0.10749,0 -0.22324,0.09095 -0.10749,0.09095 -0.19844,0.223243 -0.0827,0.132291 -0.13229,0.305924 -0.0496,0.173633 -0.0496,0.338998 v 2.554884 h -0.57051 v -2.695444 q 0,-0.479558 -0.091,-0.636654 -0.0827,-0.165365 -0.30593,-0.165365 -0.2067,0 -0.39687,0.239779 -0.19017,0.239779 -0.19017,0.677995 v 2.579689 z"
           style="text-align:center;text-anchor:middle"
           id="path2460" />
        <path
           d="m 190.7646,54.174714 h 0.62012 v 0.03307 q 0,0.04961 -0.0165,0.115755 -0.0165,0.06615 -0.0165,0.124024 0,0.03307 0.008,0.04961 l 0.5705,2.786394 0.66146,-2.745053 h 0.37207 l 0.81856,2.736785 q 0.10749,-0.744141 0.1819,-1.223698 0.0744,-0.487826 0.10749,-0.802019 0.0413,-0.322461 0.0496,-0.529167 0.0165,-0.206706 0.0165,-0.42168 v -0.124023 h 0.57051 q -0.12402,0.98392 -0.28939,1.951303 -0.16536,0.959115 -0.35553,1.926498 h -0.57878 l -0.71107,-2.505275 -0.67799,2.505275 h -0.5457 z"
           style="text-align:center;text-anchor:middle"
           id="path2462" />
        <path
           d="m 195.76689,54.174714 h 1.54616 v 3.381707 h 0.9095 v 0.487826 h -2.51354 v -0.487826 h 0.99219 V 54.66254 h -0.93431 z m 0.94258,-1.554428 q 0.12402,-0.124023 0.30592,-0.132292 0.1819,0 0.30592,0.132292 0.1323,0.132292 0.1323,0.314193 0,0.181901 -0.1323,0.305925 -0.12402,0.124023 -0.30592,0.124023 -0.1819,0 -0.30592,-0.124023 -0.12403,-0.132292 -0.12403,-0.305925 0,-0.190169 0.12403,-0.314193 z"
           style="text-align:center;text-anchor:middle"
           id="path2464" />
        <path
           d="m 200.69475,53.141185 0.66146,-0.107487 q 0,0.07441 -0.0248,0.132292 -0.0165,0.05788 -0.0248,0.09095 l -0.0992,0.917774 h 1.27331 v 0.496094 h -1.27331 q -0.0744,0.752409 -0.0744,1.413868 0,0.405143 0.0165,0.686263 0.0165,0.28112 0.0827,0.446484 0.0744,0.157097 0.20671,0.248047 0.14056,0.09095 0.37207,0.09095 0.38861,0 0.8599,-0.347266 l 0.19017,0.479558 q -0.58705,0.429948 -1.20717,0.429948 -0.61185,0 -0.89297,-0.363802 -0.27285,-0.372071 -0.24804,-1.198894 0,-0.305925 0.0165,-0.777214 0.0165,-0.479558 0.0661,-1.107943 h -0.90124 v -0.496094 h 0.92604 z"
           style="text-align:center;text-anchor:middle"
           id="path2466" />
        <path
           d="M 203.92763,58.044247 V 52.41358 h 0.7028 q 0,0.0083 0,0.0083 0.008,0 0.008,0.0083 0,0.02481 -0.0413,0.07441 -0.0413,0.04134 -0.0579,0.115755 v 2.240691 q 0.23151,-0.355534 0.57051,-0.56224 0.34726,-0.214974 0.7028,-0.214974 0.26458,0 0.47955,0.09095 0.21498,0.08268 0.37207,0.28112 0.16537,0.190169 0.24805,0.496094 0.0827,0.305924 0.0827,0.744141 v 2.348178 h -0.59531 v -2.331642 q 0,-0.611849 -0.2067,-0.851628 -0.20671,-0.248047 -0.50437,-0.248047 -0.19843,0 -0.39687,0.09095 -0.19017,0.08268 -0.37207,0.239779 -0.1819,0.148828 -0.28112,0.37207 -0.0992,0.214974 -0.0992,0.504362 v 2.224155 z"
           style="text-align:center;text-anchor:middle"
           id="path2468" />
        <path
           d="m 215.66852,54.819636 -0.42995,0.496094 q -0.0413,-0.02481 -0.0413,-0.04961 0.008,-0.03307 -0.008,-0.08268 -0.008,-0.04961 -0.0662,-0.124023 -0.0496,-0.08268 -0.19843,-0.206706 -0.28939,-0.239779 -0.78549,-0.239779 -0.24804,0 -0.47129,0.107487 -0.22324,0.09922 -0.39687,0.289388 -0.16537,0.19017 -0.27285,0.454753 -0.0992,0.264584 -0.0992,0.595313 0,0.330729 0.0992,0.611849 0.10748,0.28112 0.28112,0.487826 0.1819,0.198437 0.42168,0.314193 0.24804,0.115755 0.5457,0.115755 0.58705,0 1.00872,-0.479558 l 0.35554,0.42168 q -0.57878,0.611849 -1.41387,0.603581 -0.41341,0 -0.76894,-0.148828 -0.34727,-0.157096 -0.61185,-0.42168 -0.25632,-0.272851 -0.40515,-0.636654 -0.14056,-0.37207 -0.14056,-0.810286 0,-0.429949 0.14056,-0.802019 0.14883,-0.380339 0.40515,-0.644922 0.26458,-0.264584 0.62011,-0.413412 0.36381,-0.157096 0.78549,-0.157096 0.45475,0 0.82682,0.190169 0.38034,0.190169 0.62012,0.529167 z"
           style="text-align:center;text-anchor:middle"
           id="path2470" />
        <path
           d="m 216.78473,52.405312 h 1.33119 v 4.340822 q 0,0.446485 0.19843,0.644922 0.20671,0.19017 0.57051,0.19017 0.29766,0 0.72761,-0.19017 l 0.1819,0.512631 q -0.27285,0.09922 -0.4961,0.165364 -0.22324,0.07441 -0.56224,0.07441 -0.64492,0 -0.93431,-0.363802 -0.28939,-0.363802 -0.28939,-1.083138 v -3.737241 h -0.7276 z"
           style="text-align:center;text-anchor:middle"
           id="path2472" />
        <path
           d="m 221.0346,54.629467 q 0.51263,-0.545704 1.3808,-0.537435 0.71107,0 1.11621,0.363802 0.41341,0.355534 0.41341,1.190625 v 2.397788 h -0.57051 v -0.42168 q -0.62011,0.51263 -1.38906,0.51263 -0.30592,0 -0.5457,-0.09095 -0.23978,-0.09095 -0.41341,-0.239779 -0.16537,-0.157096 -0.25632,-0.347266 -0.0909,-0.198437 -0.0909,-0.396875 0,-0.587044 0.50436,-0.917774 0.50436,-0.338997 1.45521,-0.37207 h 0.72761 v -0.148828 q 0,-0.578777 -0.24805,-0.802019 -0.23978,-0.23151 -0.74414,-0.23151 -0.62839,0 -1.0418,0.429948 z m 2.35645,1.604037 h -0.14883 q -0.11575,0 -0.22324,0 -0.0992,-0.0083 -0.20671,-0.0083 -0.46302,0 -0.76067,0.06614 -0.29766,0.05788 -0.47129,0.173633 -0.16537,0.107487 -0.23151,0.248047 -0.0579,0.14056 -0.0579,0.297657 0,0.272851 0.23151,0.471289 0.23978,0.190169 0.58704,0.190169 0.25632,0 0.45476,-0.08268 0.2067,-0.08268 0.35553,-0.190169 0.1571,-0.115756 0.24805,-0.239779 0.0909,-0.124024 0.14056,-0.214974 0.0827,-0.165365 0.0827,-0.454753 z"
           style="text-align:center;text-anchor:middle"
           id="path2474" />
        <path
           d="m 228.15355,54.687344 -0.35553,0.537435 q -0.0413,-0.0083 -0.0413,-0.06614 0,-0.05788 -0.0165,-0.08268 -0.14883,-0.198437 -0.42994,-0.363802 -0.28112,-0.165365 -0.63666,-0.165365 -0.1571,0 -0.30592,0.04134 -0.14883,0.03307 -0.26459,0.107487 -0.11575,0.06614 -0.1819,0.173632 -0.0661,0.09922 -0.0661,0.239779 0,0.09922 0.0496,0.181901 0.0496,0.07441 0.15709,0.157097 0.11576,0.07441 0.31419,0.148828 0.19844,0.07441 0.5209,0.173633 0.72761,0.198437 1.02526,0.463021 0.30593,0.264583 0.30593,0.65319 0,0.256315 -0.11576,0.487826 -0.10748,0.223242 -0.32246,0.396875 -0.2067,0.165365 -0.50436,0.264583 -0.29766,0.09095 -0.66973,0.09095 -0.97565,0 -1.63711,-0.603581 l 0.34727,-0.611849 q 0.0248,0.02481 0.0331,0.08268 0.008,0.04961 0.0579,0.132292 0.0579,0.07441 0.19017,0.173633 0.14056,0.09095 0.41341,0.206706 0.12402,0.05788 0.28939,0.09095 0.16536,0.0248 0.32246,0.0248 0.16536,0 0.339,-0.04134 0.1819,-0.04134 0.31419,-0.124024 0.14056,-0.08268 0.22324,-0.198437 0.0909,-0.115756 0.0909,-0.256316 0,-0.223242 -0.2067,-0.37207 -0.19844,-0.148828 -0.74414,-0.314193 -0.37207,-0.107487 -0.48783,-0.148828 -0.30592,-0.115755 -0.44648,-0.206706 -0.1323,-0.09095 -0.24805,-0.214974 -0.10749,-0.124023 -0.17363,-0.28112 -0.0662,-0.157096 -0.0662,-0.338997 0,-0.206706 0.10749,-0.388607 0.11575,-0.19017 0.31419,-0.33073 0.19844,-0.148828 0.47129,-0.23151 0.27285,-0.09095 0.59531,-0.09095 0.8847,-0.0083 1.43867,0.603581 z"
           style="text-align:center;text-anchor:middle"
           id="path2476" />
        <path
           d="m 232.38689,54.687344 -0.35553,0.537435 q -0.0413,-0.0083 -0.0413,-0.06614 0,-0.05788 -0.0165,-0.08268 -0.14883,-0.198437 -0.42995,-0.363802 -0.28112,-0.165365 -0.63665,-0.165365 -0.1571,0 -0.30593,0.04134 -0.14882,0.03307 -0.26458,0.107487 -0.11575,0.06614 -0.1819,0.173632 -0.0661,0.09922 -0.0661,0.239779 0,0.09922 0.0496,0.181901 0.0496,0.07441 0.1571,0.157097 0.11575,0.07441 0.31419,0.148828 0.19844,0.07441 0.5209,0.173633 0.72761,0.198437 1.02526,0.463021 0.30593,0.264583 0.30593,0.65319 0,0.256315 -0.11576,0.487826 -0.10749,0.223242 -0.32246,0.396875 -0.20671,0.165365 -0.50436,0.264583 -0.29766,0.09095 -0.66973,0.09095 -0.97565,0 -1.63711,-0.603581 l 0.34727,-0.611849 q 0.0248,0.02481 0.0331,0.08268 0.008,0.04961 0.0579,0.132292 0.0579,0.07441 0.19017,0.173633 0.14056,0.09095 0.41341,0.206706 0.12402,0.05788 0.28939,0.09095 0.16536,0.0248 0.32246,0.0248 0.16536,0 0.33899,-0.04134 0.18191,-0.04134 0.3142,-0.124024 0.14056,-0.08268 0.22324,-0.198437 0.0909,-0.115756 0.0909,-0.256316 0,-0.223242 -0.20671,-0.37207 -0.19843,-0.148828 -0.74414,-0.314193 -0.37207,-0.107487 -0.48782,-0.148828 -0.30593,-0.115755 -0.44649,-0.206706 -0.13229,-0.09095 -0.24804,-0.214974 -0.10749,-0.124023 -0.17364,-0.28112 -0.0661,-0.157096 -0.0661,-0.338997 0,-0.206706 0.10748,-0.388607 0.11576,-0.19017 0.3142,-0.33073 0.19844,-0.148828 0.47129,-0.23151 0.27285,-0.09095 0.59531,-0.09095 0.8847,-0.0083 1.43867,0.603581 z"
           style="text-align:center;text-anchor:middle"
           id="path2478" />
        <path
           d="m 233.28812,58.044247 v -3.869533 h 0.55397 v 0.380339 q 0.13229,-0.214974 0.34726,-0.338998 0.21498,-0.132292 0.45476,-0.132292 0.24804,0 0.43821,0.165365 0.19017,0.157096 0.23978,0.396875 0.10749,-0.256315 0.339,-0.405143 0.23978,-0.157097 0.5209,-0.157097 0.39687,0 0.57877,0.28112 0.19017,0.28112 0.17364,0.711068 v 2.968296 h -0.55397 v -2.745054 q 0,-0.264583 -0.0248,-0.413411 -0.0248,-0.148828 -0.0909,-0.231511 -0.0579,-0.08268 -0.11575,-0.09922 -0.0579,-0.02481 -0.14883,-0.02481 -0.10749,0 -0.22325,0.09095 -0.10748,0.09095 -0.19843,0.223243 -0.0827,0.132291 -0.13229,0.305924 -0.0496,0.173633 -0.0496,0.338998 v 2.554884 h -0.57051 v -2.695444 q 0,-0.479558 -0.0909,-0.636654 -0.0827,-0.165365 -0.30593,-0.165365 -0.2067,0 -0.39687,0.239779 -0.19017,0.239779 -0.19017,0.677995 v 2.579689 z"
           style="text-align:center;text-anchor:middle"
           id="path2480" />
        <path
           d="m 237.96794,54.629467 q 0.51263,-0.545704 1.38079,-0.537435 0.71107,0 1.11621,0.363802 0.41342,0.355534 0.41342,1.190625 v 2.397788 h -0.57051 v -0.42168 q -0.62012,0.51263 -1.38906,0.51263 -0.30593,0 -0.54571,-0.09095 -0.23978,-0.09095 -0.41341,-0.239779 -0.16536,-0.157096 -0.25631,-0.347266 -0.091,-0.198437 -0.091,-0.396875 0,-0.587044 0.50437,-0.917774 0.50436,-0.338997 1.45521,-0.37207 h 0.7276 v -0.148828 q 0,-0.578777 -0.24805,-0.802019 -0.23978,-0.23151 -0.74414,-0.23151 -0.62838,0 -1.0418,0.429948 z m 2.35644,1.604037 h -0.14882 q -0.11576,0 -0.22325,0 -0.0992,-0.0083 -0.2067,-0.0083 -0.46302,0 -0.76068,0.06614 -0.29766,0.05788 -0.47129,0.173633 -0.16536,0.107487 -0.23151,0.248047 -0.0579,0.14056 -0.0579,0.297657 0,0.272851 0.23151,0.471289 0.23978,0.190169 0.58705,0.190169 0.25631,0 0.45475,-0.08268 0.20671,-0.08268 0.35554,-0.190169 0.15709,-0.115756 0.24804,-0.239779 0.091,-0.124024 0.14056,-0.214974 0.0827,-0.165365 0.0827,-0.454753 z"
           style="text-align:center;text-anchor:middle"
           id="path2482" />
        <path
           d="m 243.0281,53.141185 0.66146,-0.107487 q 0,0.07441 -0.0248,0.132292 -0.0165,0.05788 -0.0248,0.09095 l -0.0992,0.917774 h 1.27331 v 0.496094 h -1.27331 q -0.0744,0.752409 -0.0744,1.413868 0,0.405143 0.0165,0.686263 0.0165,0.28112 0.0827,0.446484 0.0744,0.157097 0.20671,0.248047 0.14056,0.09095 0.37207,0.09095 0.38861,0 0.8599,-0.347266 l 0.19017,0.479558 q -0.58705,0.429948 -1.20717,0.429948 -0.61185,0 -0.89296,-0.363802 -0.27286,-0.372071 -0.24805,-1.198894 0,-0.305925 0.0165,-0.777214 0.0165,-0.479558 0.0661,-1.107943 h -0.90124 v -0.496094 h 0.92605 z"
           style="text-align:center;text-anchor:middle"
           id="path2484" />
        <path
           d="m 247.85675,54.083763 q 0.30592,0 0.59531,0.107487 0.28939,0.107487 0.50436,0.338998 0.21498,0.223242 0.34727,0.570508 0.13229,0.347266 0.13229,0.818555 0,0.06615 -0.008,0.14056 0,0.07441 -0.008,0.14056 h -2.75333 q 0.0165,0.405143 0.14056,0.677995 0.12403,0.272852 0.30593,0.446484 0.19017,0.165365 0.41341,0.239779 0.23151,0.07441 0.46302,0.07441 0.60358,0 0.99219,-0.429948 l 0.339,0.330729 q -0.48783,0.595313 -1.34773,0.587045 -0.42168,0 -0.77721,-0.132292 -0.35553,-0.132291 -0.60358,-0.380338 -0.23978,-0.256316 -0.38034,-0.628386 -0.13229,-0.380339 -0.13229,-0.859896 0,-0.487826 0.14056,-0.868165 0.14056,-0.388607 0.38034,-0.644922 0.23978,-0.256315 0.56224,-0.388607 0.32246,-0.14056 0.69453,-0.14056 z m -1.16582,1.63711 h 2.12493 q 0,-0.03307 0,-0.05788 0.008,-0.03307 0.008,-0.07441 0,-0.214974 -0.0827,-0.405144 -0.0827,-0.190169 -0.21497,-0.322461 -0.1323,-0.14056 -0.3142,-0.223242 -0.1819,-0.09095 -0.39687,-0.09095 -0.39688,0 -0.71934,0.28112 -0.32246,0.28112 -0.40514,0.892969 z"
           style="text-align:center;text-anchor:middle"
           id="path2486" />
        <path
           d="m 253.55356,54.687344 -0.35553,0.537435 q -0.0413,-0.0083 -0.0413,-0.06614 0,-0.05788 -0.0165,-0.08268 -0.14883,-0.198437 -0.42995,-0.363802 -0.28112,-0.165365 -0.63665,-0.165365 -0.1571,0 -0.30592,0.04134 -0.14883,0.03307 -0.26459,0.107487 -0.11575,0.06614 -0.1819,0.173632 -0.0661,0.09922 -0.0661,0.239779 0,0.09922 0.0496,0.181901 0.0496,0.07441 0.1571,0.157097 0.11576,0.07441 0.31419,0.148828 0.19844,0.07441 0.5209,0.173633 0.72761,0.198437 1.02526,0.463021 0.30593,0.264583 0.30593,0.65319 0,0.256315 -0.11576,0.487826 -0.10748,0.223242 -0.32246,0.396875 -0.2067,0.165365 -0.50436,0.264583 -0.29766,0.09095 -0.66973,0.09095 -0.97565,0 -1.63711,-0.603581 l 0.34727,-0.611849 q 0.0248,0.02481 0.0331,0.08268 0.008,0.04961 0.0579,0.132292 0.0579,0.07441 0.19017,0.173633 0.14056,0.09095 0.41341,0.206706 0.12402,0.05788 0.28939,0.09095 0.16536,0.0248 0.32246,0.0248 0.16536,0 0.339,-0.04134 0.1819,-0.04134 0.31419,-0.124024 0.14056,-0.08268 0.22324,-0.198437 0.091,-0.115756 0.091,-0.256316 0,-0.223242 -0.2067,-0.37207 -0.19844,-0.148828 -0.74414,-0.314193 -0.37207,-0.107487 -0.48783,-0.148828 -0.30592,-0.115755 -0.44648,-0.206706 -0.1323,-0.09095 -0.24805,-0.214974 -0.10749,-0.124023 -0.17363,-0.28112 -0.0661,-0.157096 -0.0661,-0.338997 0,-0.206706 0.10749,-0.388607 0.11575,-0.19017 0.31419,-0.33073 0.19844,-0.148828 0.47129,-0.23151 0.27285,-0.09095 0.59531,-0.09095 0.8847,-0.0083 1.43867,0.603581 z"
           style="text-align:center;text-anchor:middle"
           id="path2488" />
      </g>
    </g>
  </g>
</svg>
